G75*
G70*
%OFA0B0*%
%FSLAX24Y24*%
%IPPOS*%
%LPD*%
%AMOC8*
5,1,8,0,0,1.08239X$1,22.5*
%
%ADD10R,0.0475X0.0475*%
%ADD11OC8,0.0475*%
%ADD12OC8,0.0480*%
%ADD13OC8,0.0600*%
%ADD14C,0.0540*%
%ADD15C,0.0480*%
%ADD16C,0.0160*%
%ADD17C,0.0240*%
%ADD18C,0.0100*%
%ADD19C,0.1000*%
D10*
X006500Y008250D03*
X016000Y009500D03*
D11*
X016000Y010500D03*
X016000Y011500D03*
X016000Y012500D03*
X016000Y013500D03*
X016000Y014500D03*
X016000Y015500D03*
X016000Y016500D03*
X013000Y016500D03*
X013000Y015500D03*
X013000Y014500D03*
X013000Y013500D03*
X013000Y012500D03*
X013000Y011500D03*
X013000Y010500D03*
X013000Y009500D03*
X009500Y008250D03*
X008500Y008250D03*
X007500Y008250D03*
X009000Y006972D03*
X009000Y006028D03*
X008000Y004472D03*
X008000Y003528D03*
X007500Y011250D03*
X008500Y011250D03*
X009500Y011250D03*
X010778Y013250D03*
X011722Y013250D03*
X006500Y011250D03*
D12*
X002000Y010000D03*
X001000Y010000D03*
X001000Y018500D03*
X002000Y018500D03*
X009500Y018500D03*
X010500Y018500D03*
X018000Y018500D03*
X019000Y018500D03*
X019000Y010000D03*
X018000Y010000D03*
X018000Y001500D03*
X019000Y001500D03*
X010500Y001500D03*
X009500Y001500D03*
X002000Y001500D03*
X001000Y001500D03*
D13*
X004250Y007250D03*
X004250Y012250D03*
X004250Y013250D03*
X004250Y015250D03*
X004250Y017250D03*
X009250Y017250D03*
X009250Y015250D03*
X009250Y013250D03*
X011500Y010500D03*
X011500Y005500D03*
D14*
X006270Y005000D02*
X005730Y005000D01*
X005730Y004000D02*
X006270Y004000D01*
D15*
X003240Y014500D02*
X002760Y014500D01*
X002760Y015500D02*
X003240Y015500D01*
X003240Y016500D02*
X002760Y016500D01*
D16*
X003000Y016500D02*
X007000Y016500D01*
X008250Y015250D01*
X009250Y015250D01*
X009750Y015250D01*
X010500Y016000D01*
X010500Y017000D01*
X011000Y017500D01*
X014250Y017500D01*
X015000Y016750D01*
X015000Y015250D01*
X015750Y014500D01*
X016000Y014500D01*
X015750Y015000D02*
X016250Y015000D01*
X016500Y014750D01*
X016500Y013250D01*
X016250Y013000D01*
X015750Y013000D01*
X015500Y012750D01*
X015500Y012250D01*
X015750Y012000D01*
X016250Y012000D01*
X016500Y011750D01*
X016500Y010750D01*
X016250Y010500D01*
X016000Y010500D01*
X015500Y010250D02*
X015750Y010000D01*
X018000Y010000D01*
X016000Y011500D02*
X015750Y011500D01*
X015250Y012000D01*
X015250Y014000D01*
X014500Y014750D01*
X014500Y016250D01*
X013750Y017000D01*
X011500Y017000D01*
X011000Y016500D01*
X011000Y014750D01*
X009750Y013500D01*
X009750Y012750D01*
X009000Y012000D01*
X009000Y009250D01*
X008500Y008750D01*
X008500Y008250D01*
X007500Y008250D02*
X007500Y007750D01*
X008250Y007000D01*
X008972Y007000D01*
X009000Y006972D01*
X009250Y006500D02*
X009500Y006750D01*
X009500Y008250D01*
X009500Y009000D01*
X010000Y009500D01*
X013000Y009500D01*
X013000Y010500D02*
X011500Y010500D01*
X009500Y011250D02*
X009500Y012000D01*
X009528Y012000D01*
X010778Y013250D01*
X009750Y014000D02*
X010750Y015000D01*
X010750Y016750D01*
X011250Y017250D01*
X014000Y017250D01*
X014750Y016500D01*
X014750Y015000D01*
X015750Y014000D01*
X016000Y014000D01*
X016000Y013500D01*
X016000Y012500D02*
X019000Y012500D01*
X016000Y015500D02*
X015500Y016000D01*
X015500Y017250D01*
X014250Y018500D01*
X010500Y018500D01*
X010750Y017750D02*
X009500Y016500D01*
X009000Y016500D01*
X008250Y017250D01*
X004250Y017250D01*
X002250Y017250D01*
X002000Y017000D01*
X002000Y015750D01*
X002250Y015500D01*
X003000Y015500D01*
X003500Y015000D02*
X002250Y015000D01*
X001750Y015500D01*
X001750Y017250D01*
X002000Y017500D01*
X002000Y018500D01*
X003750Y015250D02*
X003500Y015000D01*
X003750Y015250D02*
X004250Y015250D01*
X003000Y014500D02*
X001000Y014500D01*
X002000Y013500D02*
X002500Y014000D01*
X009750Y014000D01*
X009250Y013250D02*
X009250Y012750D01*
X008500Y012000D01*
X008500Y011250D01*
X008500Y010250D01*
X007500Y009250D01*
X007500Y008250D01*
X007000Y007750D02*
X008250Y006500D01*
X009250Y006500D01*
X007000Y007750D02*
X007000Y010750D01*
X006500Y011250D01*
X006000Y011250D01*
X004250Y009500D01*
X004250Y007250D01*
X002000Y010000D02*
X002000Y013500D01*
X004250Y013250D02*
X004250Y012250D01*
X007000Y012250D01*
X007500Y011750D01*
X007500Y011250D01*
X013000Y013000D02*
X013250Y013000D01*
X013750Y012500D01*
X013750Y010750D01*
X014250Y010250D01*
X014250Y002750D01*
X013750Y002250D01*
X009000Y002250D01*
X008250Y001500D01*
X002000Y001500D01*
X000000Y004000D02*
X006000Y004000D01*
X010500Y001500D02*
X013500Y001500D01*
X014500Y002500D01*
X014500Y010500D01*
X014000Y011000D01*
X014000Y012750D01*
X013500Y013250D01*
X013500Y013750D01*
X013250Y014000D01*
X013000Y014000D01*
X013000Y014500D01*
X013000Y015000D02*
X013250Y015000D01*
X013500Y014750D01*
X013500Y014250D01*
X013750Y014000D01*
X013750Y013500D01*
X014250Y013000D01*
X014250Y011250D01*
X014750Y010750D01*
X014750Y002500D01*
X015750Y001500D01*
X018000Y001500D01*
X015500Y010250D02*
X015500Y011250D01*
X015000Y011750D01*
X015000Y013750D01*
X014250Y014500D01*
X014250Y016000D01*
X013750Y016500D01*
X013000Y016500D01*
X013000Y015500D02*
X013000Y015000D01*
X013000Y013500D02*
X013000Y013000D01*
X015250Y015500D02*
X015750Y015000D01*
X015250Y015500D02*
X015250Y017000D01*
X014500Y017750D01*
X010750Y017750D01*
X009250Y017750D02*
X009250Y017250D01*
X009250Y017750D02*
X007750Y019250D01*
X016000Y016500D02*
X017000Y016500D01*
X018000Y017500D01*
X018000Y018500D01*
D17*
X018250Y019250D02*
X009500Y019250D01*
X009500Y018500D01*
X009500Y019250D02*
X007750Y019250D01*
X001750Y019250D01*
X001000Y018500D01*
X001000Y014500D01*
X001000Y010000D01*
X001000Y009500D01*
X001500Y009000D01*
X002250Y009000D01*
X003500Y007250D01*
X004250Y007250D01*
X005250Y007250D01*
X006000Y006500D01*
X006000Y005000D01*
X007000Y005000D01*
X007250Y004750D01*
X007472Y004500D01*
X008000Y004472D01*
X009500Y001500D02*
X009500Y000750D01*
X001750Y000750D01*
X001000Y001500D01*
X009500Y000750D02*
X018250Y000750D01*
X019000Y001500D01*
X019000Y010000D01*
X019000Y012500D01*
X019000Y018500D01*
X018250Y019250D01*
D18*
X018449Y019405D02*
X019800Y019405D01*
X019800Y019503D02*
X000200Y019503D01*
X000200Y019405D02*
X001551Y019405D01*
X001538Y019392D02*
X001538Y019392D01*
X001608Y019462D01*
X001700Y019500D01*
X018300Y019500D01*
X018392Y019462D01*
X018462Y019392D01*
X018984Y018870D01*
X019153Y018870D01*
X019370Y018653D01*
X019370Y018347D01*
X019250Y018227D01*
X019250Y010273D01*
X019370Y010153D01*
X019370Y009847D01*
X019250Y009727D01*
X019250Y001773D01*
X019800Y001773D01*
X019800Y001675D02*
X019349Y001675D01*
X019370Y001653D02*
X019250Y001773D01*
X019250Y001872D02*
X019800Y001872D01*
X019800Y001970D02*
X019250Y001970D01*
X019250Y002069D02*
X019800Y002069D01*
X019800Y002167D02*
X019250Y002167D01*
X019250Y002266D02*
X019800Y002266D01*
X019800Y002364D02*
X019250Y002364D01*
X019250Y002463D02*
X019800Y002463D01*
X019800Y002561D02*
X019250Y002561D01*
X019250Y002660D02*
X019800Y002660D01*
X019800Y002758D02*
X019250Y002758D01*
X019250Y002857D02*
X019800Y002857D01*
X019800Y002955D02*
X019250Y002955D01*
X019250Y003054D02*
X019800Y003054D01*
X019800Y003152D02*
X019250Y003152D01*
X019250Y003251D02*
X019800Y003251D01*
X019800Y003349D02*
X019250Y003349D01*
X019250Y003448D02*
X019800Y003448D01*
X019800Y003546D02*
X019250Y003546D01*
X019250Y003645D02*
X019800Y003645D01*
X019800Y003743D02*
X019250Y003743D01*
X019250Y003842D02*
X019800Y003842D01*
X019800Y003940D02*
X019250Y003940D01*
X019250Y004039D02*
X019800Y004039D01*
X019800Y004137D02*
X019250Y004137D01*
X019250Y004236D02*
X019800Y004236D01*
X019800Y004334D02*
X019250Y004334D01*
X019250Y004433D02*
X019800Y004433D01*
X019800Y004531D02*
X019250Y004531D01*
X019250Y004630D02*
X019800Y004630D01*
X019800Y004728D02*
X019250Y004728D01*
X019250Y004827D02*
X019800Y004827D01*
X019800Y004925D02*
X019250Y004925D01*
X019250Y005024D02*
X019800Y005024D01*
X019800Y005122D02*
X019250Y005122D01*
X019250Y005221D02*
X019800Y005221D01*
X019800Y005319D02*
X019250Y005319D01*
X019250Y005418D02*
X019800Y005418D01*
X019800Y005516D02*
X019250Y005516D01*
X019250Y005615D02*
X019800Y005615D01*
X019800Y005713D02*
X019250Y005713D01*
X019250Y005812D02*
X019800Y005812D01*
X019800Y005910D02*
X019250Y005910D01*
X019250Y006009D02*
X019800Y006009D01*
X019800Y006107D02*
X019250Y006107D01*
X019250Y006206D02*
X019800Y006206D01*
X019800Y006304D02*
X019250Y006304D01*
X019250Y006403D02*
X019800Y006403D01*
X019800Y006501D02*
X019250Y006501D01*
X019250Y006600D02*
X019800Y006600D01*
X019800Y006698D02*
X019250Y006698D01*
X019250Y006797D02*
X019800Y006797D01*
X019800Y006895D02*
X019250Y006895D01*
X019250Y006994D02*
X019800Y006994D01*
X019800Y007092D02*
X019250Y007092D01*
X019250Y007191D02*
X019800Y007191D01*
X019800Y007289D02*
X019250Y007289D01*
X019250Y007388D02*
X019800Y007388D01*
X019800Y007486D02*
X019250Y007486D01*
X019250Y007585D02*
X019800Y007585D01*
X019800Y007683D02*
X019250Y007683D01*
X019250Y007782D02*
X019800Y007782D01*
X019800Y007880D02*
X019250Y007880D01*
X019250Y007979D02*
X019800Y007979D01*
X019800Y008077D02*
X019250Y008077D01*
X019250Y008176D02*
X019800Y008176D01*
X019800Y008274D02*
X019250Y008274D01*
X019250Y008373D02*
X019800Y008373D01*
X019800Y008471D02*
X019250Y008471D01*
X019250Y008570D02*
X019800Y008570D01*
X019800Y008668D02*
X019250Y008668D01*
X019250Y008767D02*
X019800Y008767D01*
X019800Y008865D02*
X019250Y008865D01*
X019250Y008964D02*
X019800Y008964D01*
X019800Y009062D02*
X019250Y009062D01*
X019250Y009161D02*
X019800Y009161D01*
X019800Y009259D02*
X019250Y009259D01*
X019250Y009358D02*
X019800Y009358D01*
X019800Y009456D02*
X019250Y009456D01*
X019250Y009555D02*
X019800Y009555D01*
X019800Y009653D02*
X019250Y009653D01*
X019275Y009752D02*
X019800Y009752D01*
X019800Y009850D02*
X019370Y009850D01*
X019370Y009949D02*
X019800Y009949D01*
X019800Y010047D02*
X019370Y010047D01*
X019370Y010146D02*
X019800Y010146D01*
X019800Y010244D02*
X019279Y010244D01*
X019250Y010343D02*
X019800Y010343D01*
X019800Y010441D02*
X019250Y010441D01*
X019250Y010540D02*
X019800Y010540D01*
X019800Y010638D02*
X019250Y010638D01*
X019250Y010737D02*
X019800Y010737D01*
X019800Y010835D02*
X019250Y010835D01*
X019250Y010934D02*
X019800Y010934D01*
X019800Y011032D02*
X019250Y011032D01*
X019250Y011131D02*
X019800Y011131D01*
X019800Y011229D02*
X019250Y011229D01*
X019250Y011328D02*
X019800Y011328D01*
X019800Y011426D02*
X019250Y011426D01*
X019250Y011525D02*
X019800Y011525D01*
X019800Y011623D02*
X019250Y011623D01*
X019250Y011722D02*
X019800Y011722D01*
X019800Y011820D02*
X019250Y011820D01*
X019250Y011919D02*
X019800Y011919D01*
X019800Y012017D02*
X019250Y012017D01*
X019250Y012116D02*
X019800Y012116D01*
X019800Y012214D02*
X019250Y012214D01*
X019250Y012313D02*
X019800Y012313D01*
X019800Y012411D02*
X019250Y012411D01*
X019250Y012510D02*
X019800Y012510D01*
X019800Y012608D02*
X019250Y012608D01*
X019250Y012707D02*
X019800Y012707D01*
X019800Y012805D02*
X019250Y012805D01*
X019250Y012904D02*
X019800Y012904D01*
X019800Y013002D02*
X019250Y013002D01*
X019250Y013101D02*
X019800Y013101D01*
X019800Y013199D02*
X019250Y013199D01*
X019250Y013298D02*
X019800Y013298D01*
X019800Y013396D02*
X019250Y013396D01*
X019250Y013495D02*
X019800Y013495D01*
X019800Y013593D02*
X019250Y013593D01*
X019250Y013692D02*
X019800Y013692D01*
X019800Y013790D02*
X019250Y013790D01*
X019250Y013889D02*
X019800Y013889D01*
X019800Y013987D02*
X019250Y013987D01*
X019250Y014086D02*
X019800Y014086D01*
X019800Y014184D02*
X019250Y014184D01*
X019250Y014283D02*
X019800Y014283D01*
X019800Y014381D02*
X019250Y014381D01*
X019250Y014480D02*
X019800Y014480D01*
X019800Y014578D02*
X019250Y014578D01*
X019250Y014677D02*
X019800Y014677D01*
X019800Y014775D02*
X019250Y014775D01*
X019250Y014874D02*
X019800Y014874D01*
X019800Y014972D02*
X019250Y014972D01*
X019250Y015071D02*
X019800Y015071D01*
X019800Y015169D02*
X019250Y015169D01*
X019250Y015268D02*
X019800Y015268D01*
X019800Y015366D02*
X019250Y015366D01*
X019250Y015465D02*
X019800Y015465D01*
X019800Y015563D02*
X019250Y015563D01*
X019250Y015662D02*
X019800Y015662D01*
X019800Y015760D02*
X019250Y015760D01*
X019250Y015859D02*
X019800Y015859D01*
X019800Y015957D02*
X019250Y015957D01*
X019250Y016056D02*
X019800Y016056D01*
X019800Y016154D02*
X019250Y016154D01*
X019250Y016253D02*
X019800Y016253D01*
X019800Y016351D02*
X019250Y016351D01*
X019250Y016450D02*
X019800Y016450D01*
X019800Y016548D02*
X019250Y016548D01*
X019250Y016647D02*
X019800Y016647D01*
X019800Y016745D02*
X019250Y016745D01*
X019250Y016844D02*
X019800Y016844D01*
X019800Y016942D02*
X019250Y016942D01*
X019250Y017041D02*
X019800Y017041D01*
X019800Y017139D02*
X019250Y017139D01*
X019250Y017238D02*
X019800Y017238D01*
X019800Y017336D02*
X019250Y017336D01*
X019250Y017435D02*
X019800Y017435D01*
X019800Y017533D02*
X019250Y017533D01*
X019250Y017632D02*
X019800Y017632D01*
X019800Y017730D02*
X019250Y017730D01*
X019250Y017829D02*
X019800Y017829D01*
X019800Y017927D02*
X019250Y017927D01*
X019250Y018026D02*
X019800Y018026D01*
X019800Y018124D02*
X019250Y018124D01*
X019250Y018223D02*
X019800Y018223D01*
X019800Y018321D02*
X019344Y018321D01*
X019370Y018420D02*
X019800Y018420D01*
X019800Y018518D02*
X019370Y018518D01*
X019370Y018617D02*
X019800Y018617D01*
X019800Y018715D02*
X019308Y018715D01*
X019210Y018814D02*
X019800Y018814D01*
X019800Y018912D02*
X018942Y018912D01*
X018843Y019011D02*
X019800Y019011D01*
X019800Y019109D02*
X018745Y019109D01*
X018646Y019208D02*
X019800Y019208D01*
X019800Y019306D02*
X018548Y019306D01*
X018234Y018912D02*
X009750Y018912D01*
X009750Y019000D02*
X018146Y019000D01*
X018630Y018516D01*
X018630Y018347D01*
X018750Y018227D01*
X018750Y012710D01*
X016310Y012710D01*
X016230Y012790D01*
X016337Y012790D01*
X016460Y012913D01*
X016710Y013163D01*
X016710Y014837D01*
X016587Y014960D01*
X016587Y014960D01*
X016460Y015087D01*
X016337Y015210D01*
X016230Y015210D01*
X016367Y015348D01*
X016367Y015652D01*
X016152Y015867D01*
X015930Y015867D01*
X015710Y016087D01*
X015710Y016270D01*
X015848Y016133D01*
X016152Y016133D01*
X016310Y016290D01*
X017087Y016290D01*
X017210Y016413D01*
X018210Y017413D01*
X018210Y018187D01*
X018370Y018347D01*
X018370Y018653D01*
X018153Y018870D01*
X017847Y018870D01*
X017630Y018653D01*
X017630Y018347D01*
X017790Y018187D01*
X017790Y017587D01*
X016913Y016710D01*
X016310Y016710D01*
X016152Y016867D01*
X015848Y016867D01*
X015710Y016730D01*
X015710Y017337D01*
X015587Y017460D01*
X014337Y018710D01*
X010813Y018710D01*
X010653Y018870D01*
X010347Y018870D01*
X010130Y018653D01*
X010130Y018347D01*
X010347Y018130D01*
X010653Y018130D01*
X010813Y018290D01*
X014163Y018290D01*
X014493Y017960D01*
X010663Y017960D01*
X009413Y016710D01*
X009087Y016710D01*
X008337Y017460D01*
X004648Y017460D01*
X004428Y017680D01*
X004072Y017680D01*
X003852Y017460D01*
X002210Y017460D01*
X002210Y018187D01*
X002370Y018347D01*
X002370Y018653D01*
X002153Y018870D01*
X001847Y018870D01*
X001630Y018653D01*
X001630Y018347D01*
X001790Y018187D01*
X001790Y017587D01*
X001540Y017337D01*
X001540Y015413D01*
X001663Y015290D01*
X002163Y014790D01*
X002527Y014790D01*
X002447Y014710D01*
X001250Y014710D01*
X001250Y018227D01*
X001370Y018347D01*
X001370Y018516D01*
X001854Y019000D01*
X007703Y019000D01*
X009040Y017663D01*
X009040Y017648D01*
X008820Y017428D01*
X008820Y017072D01*
X009072Y016820D01*
X009428Y016820D01*
X009680Y017072D01*
X009680Y017428D01*
X009460Y017648D01*
X009460Y017837D01*
X008297Y019000D01*
X009250Y019000D01*
X009250Y018773D01*
X009130Y018653D01*
X009130Y018347D01*
X009347Y018130D01*
X009653Y018130D01*
X009870Y018347D01*
X009870Y018653D01*
X009750Y018773D01*
X009750Y019000D01*
X009750Y018814D02*
X010290Y018814D01*
X010192Y018715D02*
X009808Y018715D01*
X009870Y018617D02*
X010130Y018617D01*
X010130Y018518D02*
X009870Y018518D01*
X009870Y018420D02*
X010130Y018420D01*
X010156Y018321D02*
X009844Y018321D01*
X009746Y018223D02*
X010254Y018223D01*
X010630Y017927D02*
X009370Y017927D01*
X009460Y017829D02*
X010532Y017829D01*
X010433Y017730D02*
X009460Y017730D01*
X009477Y017632D02*
X010335Y017632D01*
X010236Y017533D02*
X009575Y017533D01*
X009674Y017435D02*
X010138Y017435D01*
X010039Y017336D02*
X009680Y017336D01*
X009680Y017238D02*
X009941Y017238D01*
X009842Y017139D02*
X009680Y017139D01*
X009649Y017041D02*
X009744Y017041D01*
X009645Y016942D02*
X009550Y016942D01*
X009547Y016844D02*
X009452Y016844D01*
X009448Y016745D02*
X009052Y016745D01*
X009048Y016844D02*
X008953Y016844D01*
X008950Y016942D02*
X008855Y016942D01*
X008851Y017041D02*
X008756Y017041D01*
X008820Y017139D02*
X008658Y017139D01*
X008559Y017238D02*
X008820Y017238D01*
X008820Y017336D02*
X008461Y017336D01*
X008362Y017435D02*
X008826Y017435D01*
X008925Y017533D02*
X004575Y017533D01*
X004477Y017632D02*
X009023Y017632D01*
X008973Y017730D02*
X002210Y017730D01*
X002210Y017632D02*
X004023Y017632D01*
X003925Y017533D02*
X002210Y017533D01*
X002210Y017829D02*
X008874Y017829D01*
X008776Y017927D02*
X002210Y017927D01*
X002210Y018026D02*
X008677Y018026D01*
X008579Y018124D02*
X002210Y018124D01*
X002246Y018223D02*
X008480Y018223D01*
X008382Y018321D02*
X002344Y018321D01*
X002370Y018420D02*
X008283Y018420D01*
X008185Y018518D02*
X002370Y018518D01*
X002370Y018617D02*
X008086Y018617D01*
X007988Y018715D02*
X002308Y018715D01*
X002210Y018814D02*
X007889Y018814D01*
X007791Y018912D02*
X001766Y018912D01*
X001790Y018814D02*
X001667Y018814D01*
X001692Y018715D02*
X001569Y018715D01*
X001630Y018617D02*
X001470Y018617D01*
X001372Y018518D02*
X001630Y018518D01*
X001630Y018420D02*
X001370Y018420D01*
X001344Y018321D02*
X001656Y018321D01*
X001754Y018223D02*
X001250Y018223D01*
X001250Y018124D02*
X001790Y018124D01*
X001790Y018026D02*
X001250Y018026D01*
X001250Y017927D02*
X001790Y017927D01*
X001790Y017829D02*
X001250Y017829D01*
X001250Y017730D02*
X001790Y017730D01*
X001790Y017632D02*
X001250Y017632D01*
X001250Y017533D02*
X001736Y017533D01*
X001638Y017435D02*
X001250Y017435D01*
X001250Y017336D02*
X001540Y017336D01*
X001540Y017238D02*
X001250Y017238D01*
X001250Y017139D02*
X001540Y017139D01*
X001540Y017041D02*
X001250Y017041D01*
X001250Y016942D02*
X001540Y016942D01*
X001540Y016844D02*
X001250Y016844D01*
X001250Y016745D02*
X001540Y016745D01*
X001540Y016647D02*
X001250Y016647D01*
X001250Y016548D02*
X001540Y016548D01*
X001540Y016450D02*
X001250Y016450D01*
X001250Y016351D02*
X001540Y016351D01*
X001540Y016253D02*
X001250Y016253D01*
X001250Y016154D02*
X001540Y016154D01*
X001540Y016056D02*
X001250Y016056D01*
X001250Y015957D02*
X001540Y015957D01*
X001540Y015859D02*
X001250Y015859D01*
X001250Y015760D02*
X001540Y015760D01*
X001540Y015662D02*
X001250Y015662D01*
X001250Y015563D02*
X001540Y015563D01*
X001540Y015465D02*
X001250Y015465D01*
X001250Y015366D02*
X001587Y015366D01*
X001685Y015268D02*
X001250Y015268D01*
X001250Y015169D02*
X001784Y015169D01*
X001882Y015071D02*
X001250Y015071D01*
X001250Y014972D02*
X001981Y014972D01*
X002079Y014874D02*
X001250Y014874D01*
X001250Y014775D02*
X002512Y014775D01*
X002527Y015210D02*
X002337Y015210D01*
X002257Y015290D01*
X002337Y015290D01*
X002447Y015290D01*
X002527Y015210D01*
X002469Y015268D02*
X002279Y015268D01*
X002337Y015710D02*
X002210Y015837D01*
X002210Y016913D01*
X002337Y017040D01*
X003852Y017040D01*
X004072Y016820D01*
X004428Y016820D01*
X004648Y017040D01*
X008163Y017040D01*
X008790Y016413D01*
X008913Y016290D01*
X009587Y016290D01*
X009710Y016413D01*
X009710Y016413D01*
X010290Y016993D01*
X010290Y016087D01*
X009663Y015460D01*
X009648Y015460D01*
X009428Y015680D01*
X009072Y015680D01*
X008852Y015460D01*
X008337Y015460D01*
X007087Y016710D01*
X003553Y016710D01*
X003450Y016814D01*
X003314Y016870D01*
X002686Y016870D01*
X002550Y016814D01*
X002446Y016710D01*
X002390Y016574D01*
X002390Y016426D01*
X002446Y016290D01*
X002550Y016186D01*
X002686Y016130D01*
X003314Y016130D01*
X003450Y016186D01*
X003553Y016290D01*
X006913Y016290D01*
X008040Y015163D01*
X008163Y015040D01*
X008852Y015040D01*
X009072Y014820D01*
X009428Y014820D01*
X009648Y015040D01*
X009837Y015040D01*
X009960Y015163D01*
X010540Y015743D01*
X010540Y015087D01*
X009663Y014210D01*
X003473Y014210D01*
X003554Y014290D01*
X003610Y014426D01*
X003610Y014574D01*
X003554Y014710D01*
X003473Y014790D01*
X003587Y014790D01*
X003710Y014913D01*
X003837Y015040D01*
X003852Y015040D01*
X004072Y014820D01*
X004428Y014820D01*
X004680Y015072D01*
X004680Y015428D01*
X004428Y015680D01*
X004072Y015680D01*
X003852Y015460D01*
X003663Y015460D01*
X003596Y015393D01*
X003610Y015426D01*
X003610Y015574D01*
X003554Y015710D01*
X003450Y015814D01*
X003314Y015870D01*
X002686Y015870D01*
X002550Y015814D01*
X002447Y015710D01*
X002337Y015710D01*
X002287Y015760D02*
X002497Y015760D01*
X002659Y015859D02*
X002210Y015859D01*
X002210Y015957D02*
X007246Y015957D01*
X007344Y015859D02*
X003341Y015859D01*
X003503Y015760D02*
X007443Y015760D01*
X007541Y015662D02*
X004447Y015662D01*
X004545Y015563D02*
X007640Y015563D01*
X007738Y015465D02*
X004644Y015465D01*
X004680Y015366D02*
X007837Y015366D01*
X007935Y015268D02*
X004680Y015268D01*
X004680Y015169D02*
X008034Y015169D01*
X008132Y015071D02*
X004679Y015071D01*
X004580Y014972D02*
X008920Y014972D01*
X009018Y014874D02*
X004482Y014874D01*
X004018Y014874D02*
X003671Y014874D01*
X003769Y014972D02*
X003920Y014972D01*
X003567Y014677D02*
X010130Y014677D01*
X010228Y014775D02*
X003488Y014775D01*
X003608Y014578D02*
X010031Y014578D01*
X009933Y014480D02*
X003610Y014480D01*
X003591Y014381D02*
X009834Y014381D01*
X009736Y014283D02*
X003546Y014283D01*
X004072Y013680D02*
X003820Y013428D01*
X003820Y013072D01*
X004040Y012852D01*
X004040Y012648D01*
X003820Y012428D01*
X003820Y012072D01*
X004072Y011820D01*
X004428Y011820D01*
X004648Y012040D01*
X006913Y012040D01*
X007290Y011663D01*
X007290Y011560D01*
X007133Y011402D01*
X007133Y011098D01*
X007348Y010883D01*
X007652Y010883D01*
X007867Y011098D01*
X007867Y011402D01*
X007710Y011560D01*
X007710Y011837D01*
X007210Y012337D01*
X007087Y012460D01*
X004648Y012460D01*
X004460Y012648D01*
X004460Y012852D01*
X004680Y013072D01*
X004680Y013428D01*
X004428Y013680D01*
X004072Y013680D01*
X003985Y013593D02*
X002390Y013593D01*
X002292Y013495D02*
X003886Y013495D01*
X003820Y013396D02*
X002210Y013396D01*
X002210Y013413D02*
X002587Y013790D01*
X009743Y013790D01*
X009540Y013587D01*
X009540Y013568D01*
X009428Y013680D01*
X009072Y013680D01*
X008820Y013428D01*
X008820Y013072D01*
X009040Y012852D01*
X009040Y012837D01*
X008413Y012210D01*
X008290Y012087D01*
X008290Y011560D01*
X008133Y011402D01*
X008133Y011098D01*
X008290Y010940D01*
X008290Y010337D01*
X007413Y009460D01*
X007290Y009337D01*
X007290Y008560D01*
X007210Y008480D01*
X007210Y010837D01*
X007087Y010960D01*
X006867Y011180D01*
X006867Y011402D01*
X006652Y011617D01*
X006348Y011617D01*
X006190Y011460D01*
X005913Y011460D01*
X005790Y011337D01*
X004040Y009587D01*
X004040Y007648D01*
X003892Y007500D01*
X003629Y007500D01*
X002470Y009122D01*
X002462Y009142D01*
X002441Y009162D01*
X002425Y009186D01*
X002407Y009197D01*
X002392Y009212D01*
X002365Y009223D01*
X002340Y009238D01*
X002319Y009242D01*
X002300Y009250D01*
X002271Y009250D01*
X002242Y009255D01*
X002221Y009250D01*
X001604Y009250D01*
X001250Y009604D01*
X001250Y009727D01*
X001370Y009847D01*
X001370Y010153D01*
X001250Y010273D01*
X001250Y014290D01*
X002447Y014290D01*
X002527Y014210D01*
X002413Y014210D01*
X002290Y014087D01*
X001790Y013587D01*
X001790Y010313D01*
X001630Y010153D01*
X001630Y009847D01*
X001847Y009630D01*
X002153Y009630D01*
X002370Y009847D01*
X002370Y010153D01*
X002210Y010313D01*
X002210Y013413D01*
X002210Y013298D02*
X003820Y013298D01*
X003820Y013199D02*
X002210Y013199D01*
X002210Y013101D02*
X003820Y013101D01*
X003890Y013002D02*
X002210Y013002D01*
X002210Y012904D02*
X003988Y012904D01*
X004040Y012805D02*
X002210Y012805D01*
X002210Y012707D02*
X004040Y012707D01*
X004000Y012608D02*
X002210Y012608D01*
X002210Y012510D02*
X003901Y012510D01*
X003820Y012411D02*
X002210Y012411D01*
X002210Y012313D02*
X003820Y012313D01*
X003820Y012214D02*
X002210Y012214D01*
X002210Y012116D02*
X003820Y012116D01*
X003875Y012017D02*
X002210Y012017D01*
X002210Y011919D02*
X003973Y011919D01*
X004072Y011820D02*
X002210Y011820D01*
X002210Y011722D02*
X007231Y011722D01*
X007290Y011623D02*
X002210Y011623D01*
X002210Y011525D02*
X006255Y011525D01*
X005879Y011426D02*
X002210Y011426D01*
X002210Y011328D02*
X005781Y011328D01*
X005682Y011229D02*
X002210Y011229D01*
X002210Y011131D02*
X005584Y011131D01*
X005485Y011032D02*
X002210Y011032D01*
X002210Y010934D02*
X005387Y010934D01*
X005288Y010835D02*
X002210Y010835D01*
X002210Y010737D02*
X005190Y010737D01*
X005091Y010638D02*
X002210Y010638D01*
X002210Y010540D02*
X004993Y010540D01*
X004894Y010441D02*
X002210Y010441D01*
X002210Y010343D02*
X004796Y010343D01*
X004697Y010244D02*
X002279Y010244D01*
X002370Y010146D02*
X004599Y010146D01*
X004500Y010047D02*
X002370Y010047D01*
X002370Y009949D02*
X004402Y009949D01*
X004303Y009850D02*
X002370Y009850D01*
X002275Y009752D02*
X004205Y009752D01*
X004106Y009653D02*
X002176Y009653D01*
X001824Y009653D02*
X001250Y009653D01*
X001275Y009752D02*
X001725Y009752D01*
X001630Y009850D02*
X001370Y009850D01*
X001370Y009949D02*
X001630Y009949D01*
X001630Y010047D02*
X001370Y010047D01*
X001370Y010146D02*
X001630Y010146D01*
X001721Y010244D02*
X001279Y010244D01*
X001250Y010343D02*
X001790Y010343D01*
X001790Y010441D02*
X001250Y010441D01*
X001250Y010540D02*
X001790Y010540D01*
X001790Y010638D02*
X001250Y010638D01*
X001250Y010737D02*
X001790Y010737D01*
X001790Y010835D02*
X001250Y010835D01*
X001250Y010934D02*
X001790Y010934D01*
X001790Y011032D02*
X001250Y011032D01*
X001250Y011131D02*
X001790Y011131D01*
X001790Y011229D02*
X001250Y011229D01*
X001250Y011328D02*
X001790Y011328D01*
X001790Y011426D02*
X001250Y011426D01*
X001250Y011525D02*
X001790Y011525D01*
X001790Y011623D02*
X001250Y011623D01*
X001250Y011722D02*
X001790Y011722D01*
X001790Y011820D02*
X001250Y011820D01*
X001250Y011919D02*
X001790Y011919D01*
X001790Y012017D02*
X001250Y012017D01*
X001250Y012116D02*
X001790Y012116D01*
X001790Y012214D02*
X001250Y012214D01*
X001250Y012313D02*
X001790Y012313D01*
X001790Y012411D02*
X001250Y012411D01*
X001250Y012510D02*
X001790Y012510D01*
X001790Y012608D02*
X001250Y012608D01*
X001250Y012707D02*
X001790Y012707D01*
X001790Y012805D02*
X001250Y012805D01*
X001250Y012904D02*
X001790Y012904D01*
X001790Y013002D02*
X001250Y013002D01*
X001250Y013101D02*
X001790Y013101D01*
X001790Y013199D02*
X001250Y013199D01*
X001250Y013298D02*
X001790Y013298D01*
X001790Y013396D02*
X001250Y013396D01*
X001250Y013495D02*
X001790Y013495D01*
X001796Y013593D02*
X001250Y013593D01*
X001250Y013692D02*
X001895Y013692D01*
X001993Y013790D02*
X001250Y013790D01*
X001250Y013889D02*
X002092Y013889D01*
X002190Y013987D02*
X001250Y013987D01*
X001250Y014086D02*
X002289Y014086D01*
X002387Y014184D02*
X001250Y014184D01*
X001250Y014283D02*
X002454Y014283D01*
X002489Y013692D02*
X009645Y013692D01*
X009546Y013593D02*
X009515Y013593D01*
X009960Y013413D02*
X011210Y014663D01*
X011210Y016413D01*
X011587Y016790D01*
X012770Y016790D01*
X012633Y016652D01*
X012633Y016348D01*
X012848Y016133D01*
X013152Y016133D01*
X013310Y016290D01*
X013663Y016290D01*
X014040Y015913D01*
X014040Y014413D01*
X014163Y014290D01*
X014790Y013663D01*
X014790Y011663D01*
X015290Y011163D01*
X015290Y010163D01*
X015636Y009818D01*
X015623Y009795D01*
X015613Y009757D01*
X015613Y009529D01*
X015971Y009529D01*
X015971Y009471D01*
X016029Y009471D01*
X016029Y009529D01*
X016387Y009529D01*
X016387Y009757D01*
X016379Y009790D01*
X017687Y009790D01*
X017847Y009630D01*
X018153Y009630D01*
X018370Y009847D01*
X018370Y010153D01*
X018153Y010370D01*
X017847Y010370D01*
X017687Y010210D01*
X016230Y010210D01*
X016310Y010290D01*
X016337Y010290D01*
X016460Y010413D01*
X016710Y010663D01*
X016710Y011837D01*
X016587Y011960D01*
X016587Y011960D01*
X016460Y012087D01*
X016337Y012210D01*
X016230Y012210D01*
X016310Y012290D01*
X018750Y012290D01*
X018750Y010273D01*
X018630Y010153D01*
X018630Y009847D01*
X018750Y009727D01*
X018750Y001773D01*
X018250Y001773D01*
X018153Y001870D02*
X017847Y001870D01*
X017687Y001710D01*
X015837Y001710D01*
X014960Y002587D01*
X014960Y010837D01*
X014837Y010960D01*
X014460Y011337D01*
X014460Y013087D01*
X014337Y013210D01*
X013960Y013587D01*
X013960Y014087D01*
X013837Y014210D01*
X013710Y014337D01*
X013710Y014837D01*
X013587Y014960D01*
X013337Y015210D01*
X013230Y015210D01*
X013367Y015348D01*
X013367Y015652D01*
X013152Y015867D01*
X012848Y015867D01*
X012633Y015652D01*
X012633Y015348D01*
X012790Y015190D01*
X012790Y014913D01*
X012842Y014861D01*
X012633Y014652D01*
X012633Y014348D01*
X012790Y014190D01*
X012790Y013913D01*
X012842Y013861D01*
X012633Y013652D01*
X012633Y013348D01*
X012790Y013190D01*
X012790Y012913D01*
X012828Y012875D01*
X012613Y012660D01*
X012613Y012529D01*
X012971Y012529D01*
X012971Y012471D01*
X013029Y012471D01*
X013029Y012529D01*
X013387Y012529D01*
X013387Y012566D01*
X013540Y012413D01*
X013540Y010663D01*
X014040Y010163D01*
X014040Y002837D01*
X013663Y002460D01*
X008913Y002460D01*
X008163Y001710D01*
X002313Y001710D01*
X002153Y001870D01*
X001847Y001870D01*
X001630Y001653D01*
X001630Y001347D01*
X001847Y001130D01*
X002153Y001130D01*
X002313Y001290D01*
X008337Y001290D01*
X009087Y002040D01*
X013743Y002040D01*
X013413Y001710D01*
X010813Y001710D01*
X010653Y001870D01*
X010347Y001870D01*
X010130Y001653D01*
X010130Y001347D01*
X010347Y001130D01*
X010653Y001130D01*
X010813Y001290D01*
X013587Y001290D01*
X013710Y001413D01*
X013710Y001413D01*
X014625Y002328D01*
X014663Y002290D01*
X015663Y001290D01*
X017687Y001290D01*
X017847Y001130D01*
X018153Y001130D01*
X018370Y001347D01*
X018370Y001653D01*
X018153Y001870D01*
X018349Y001675D02*
X018651Y001675D01*
X018630Y001653D02*
X018630Y001484D01*
X018146Y001000D01*
X009750Y001000D01*
X009750Y001227D01*
X009870Y001347D01*
X009870Y001653D01*
X009653Y001870D01*
X009347Y001870D01*
X009130Y001653D01*
X009130Y001347D01*
X009250Y001227D01*
X009250Y001000D01*
X001854Y001000D01*
X001370Y001484D01*
X001370Y001653D01*
X001153Y001870D01*
X000847Y001870D01*
X000630Y001653D01*
X000630Y001347D01*
X000847Y001130D01*
X001016Y001130D01*
X001538Y000608D01*
X001608Y000538D01*
X001700Y000500D01*
X018300Y000500D01*
X018392Y000538D01*
X018984Y001130D01*
X019153Y001130D01*
X019370Y001347D01*
X019370Y001653D01*
X019370Y001576D02*
X019800Y001576D01*
X019800Y001478D02*
X019370Y001478D01*
X019370Y001379D02*
X019800Y001379D01*
X019800Y001281D02*
X019304Y001281D01*
X019205Y001182D02*
X019800Y001182D01*
X019800Y001084D02*
X018937Y001084D01*
X018839Y000985D02*
X019800Y000985D01*
X019800Y000887D02*
X018740Y000887D01*
X018642Y000788D02*
X019800Y000788D01*
X019800Y000690D02*
X018543Y000690D01*
X018445Y000591D02*
X019800Y000591D01*
X019800Y000493D02*
X000200Y000493D01*
X000200Y000591D02*
X001555Y000591D01*
X001457Y000690D02*
X000200Y000690D01*
X000200Y000788D02*
X001358Y000788D01*
X001260Y000887D02*
X000200Y000887D01*
X000200Y000985D02*
X001161Y000985D01*
X001063Y001084D02*
X000200Y001084D01*
X000200Y001182D02*
X000795Y001182D01*
X000696Y001281D02*
X000200Y001281D01*
X000200Y001379D02*
X000630Y001379D01*
X000630Y001478D02*
X000200Y001478D01*
X000200Y001576D02*
X000630Y001576D01*
X000651Y001675D02*
X000200Y001675D01*
X000200Y001773D02*
X000750Y001773D01*
X001250Y001773D02*
X001750Y001773D01*
X001651Y001675D02*
X001349Y001675D01*
X001370Y001576D02*
X001630Y001576D01*
X001630Y001478D02*
X001376Y001478D01*
X001475Y001379D02*
X001630Y001379D01*
X001573Y001281D02*
X001696Y001281D01*
X001672Y001182D02*
X001795Y001182D01*
X001770Y001084D02*
X009250Y001084D01*
X009250Y001182D02*
X002205Y001182D01*
X002304Y001281D02*
X009196Y001281D01*
X009130Y001379D02*
X008426Y001379D01*
X008524Y001478D02*
X009130Y001478D01*
X009130Y001576D02*
X008623Y001576D01*
X008721Y001675D02*
X009151Y001675D01*
X009250Y001773D02*
X008820Y001773D01*
X008918Y001872D02*
X013575Y001872D01*
X013673Y001970D02*
X009017Y001970D01*
X008817Y002364D02*
X000200Y002364D01*
X000200Y002266D02*
X008719Y002266D01*
X008620Y002167D02*
X000200Y002167D01*
X000200Y002069D02*
X008522Y002069D01*
X008423Y001970D02*
X000200Y001970D01*
X000200Y001872D02*
X008325Y001872D01*
X008226Y001773D02*
X002250Y001773D01*
X000200Y002463D02*
X013666Y002463D01*
X013764Y002561D02*
X000200Y002561D01*
X000200Y002660D02*
X013863Y002660D01*
X013961Y002758D02*
X000200Y002758D01*
X000200Y002857D02*
X014040Y002857D01*
X014040Y002955D02*
X000200Y002955D01*
X000200Y003054D02*
X014040Y003054D01*
X014040Y003152D02*
X008172Y003152D01*
X008160Y003140D02*
X008387Y003367D01*
X008387Y003499D01*
X008029Y003499D01*
X008029Y003556D01*
X008387Y003556D01*
X008387Y003688D01*
X008160Y003915D01*
X008029Y003915D01*
X008029Y003556D01*
X007971Y003556D01*
X007971Y003499D01*
X007613Y003499D01*
X007613Y003367D01*
X007840Y003140D01*
X007971Y003140D01*
X007971Y003499D01*
X008029Y003499D01*
X008029Y003140D01*
X008160Y003140D01*
X008029Y003152D02*
X007971Y003152D01*
X007971Y003251D02*
X008029Y003251D01*
X008029Y003349D02*
X007971Y003349D01*
X007971Y003448D02*
X008029Y003448D01*
X008029Y003546D02*
X014040Y003546D01*
X014040Y003448D02*
X008387Y003448D01*
X008369Y003349D02*
X014040Y003349D01*
X014040Y003251D02*
X008271Y003251D01*
X007971Y003546D02*
X000200Y003546D01*
X000200Y003448D02*
X007613Y003448D01*
X007631Y003349D02*
X000200Y003349D01*
X000200Y003251D02*
X007729Y003251D01*
X007828Y003152D02*
X000200Y003152D01*
X000200Y003645D02*
X005505Y003645D01*
X005510Y003641D02*
X005569Y003611D01*
X005632Y003590D01*
X005697Y003580D01*
X005960Y003580D01*
X005960Y003960D01*
X006040Y003960D01*
X006040Y004040D01*
X005960Y004040D01*
X005960Y004420D01*
X005697Y004420D01*
X005632Y004410D01*
X005569Y004389D01*
X005510Y004359D01*
X005456Y004320D01*
X005410Y004274D01*
X005371Y004220D01*
X005341Y004161D01*
X005320Y004098D01*
X005311Y004040D01*
X005960Y004040D01*
X005960Y003960D01*
X005311Y003960D01*
X005320Y003902D01*
X005341Y003839D01*
X005371Y003780D01*
X005410Y003726D01*
X005456Y003680D01*
X005510Y003641D01*
X005398Y003743D02*
X000200Y003743D01*
X000200Y003842D02*
X005340Y003842D01*
X005314Y003940D02*
X000200Y003940D01*
X000200Y004039D02*
X005960Y004039D01*
X006040Y004040D02*
X006040Y004420D01*
X006303Y004420D01*
X006368Y004410D01*
X006431Y004389D01*
X006490Y004359D01*
X006544Y004320D01*
X006590Y004274D01*
X006629Y004220D01*
X006659Y004161D01*
X006680Y004098D01*
X006689Y004040D01*
X006040Y004040D01*
X006040Y004039D02*
X014040Y004039D01*
X014040Y004137D02*
X008184Y004137D01*
X008152Y004105D02*
X008367Y004320D01*
X008367Y004625D01*
X008152Y004840D01*
X007848Y004840D01*
X007744Y004736D01*
X007590Y004744D01*
X007465Y004885D01*
X007462Y004892D01*
X007432Y004922D01*
X007404Y004953D01*
X007397Y004957D01*
X007212Y005142D01*
X007142Y005212D01*
X007050Y005250D01*
X006586Y005250D01*
X006497Y005339D01*
X006350Y005400D01*
X006250Y005400D01*
X006250Y006550D01*
X006212Y006642D01*
X005462Y007392D01*
X005392Y007462D01*
X005300Y007500D01*
X004608Y007500D01*
X004460Y007648D01*
X004460Y009413D01*
X006087Y011040D01*
X006190Y011040D01*
X006348Y010883D01*
X006570Y010883D01*
X006790Y010663D01*
X006790Y008629D01*
X006757Y008637D01*
X006529Y008637D01*
X006529Y008279D01*
X006471Y008279D01*
X006471Y008637D01*
X006243Y008637D01*
X006205Y008627D01*
X006170Y008608D01*
X006142Y008580D01*
X006123Y008545D01*
X006113Y008507D01*
X006113Y008279D01*
X006471Y008279D01*
X006471Y008221D01*
X006529Y008221D01*
X006529Y007863D01*
X006757Y007863D01*
X006790Y007871D01*
X006790Y007663D01*
X006913Y007540D01*
X006913Y007540D01*
X008040Y006413D01*
X008163Y006290D01*
X008714Y006290D01*
X008613Y006188D01*
X008613Y006056D01*
X008971Y006056D01*
X008971Y005999D01*
X008613Y005999D01*
X008613Y005867D01*
X008840Y005640D01*
X008971Y005640D01*
X008971Y005999D01*
X009029Y005999D01*
X009029Y006056D01*
X009387Y006056D01*
X009387Y006188D01*
X009286Y006290D01*
X009337Y006290D01*
X009587Y006540D01*
X009710Y006663D01*
X009710Y007940D01*
X009867Y008098D01*
X009867Y008402D01*
X009710Y008560D01*
X009710Y008913D01*
X010087Y009290D01*
X012690Y009290D01*
X012848Y009133D01*
X013152Y009133D01*
X013367Y009348D01*
X013367Y009652D01*
X013152Y009867D01*
X012848Y009867D01*
X012690Y009710D01*
X009913Y009710D01*
X009413Y009210D01*
X009290Y009087D01*
X009290Y008560D01*
X009133Y008402D01*
X009133Y008098D01*
X009290Y007940D01*
X009290Y007202D01*
X009152Y007340D01*
X008848Y007340D01*
X008718Y007210D01*
X008337Y007210D01*
X007710Y007837D01*
X007710Y007940D01*
X007867Y008098D01*
X007867Y008402D01*
X007710Y008560D01*
X007710Y009163D01*
X008710Y010163D01*
X008710Y010940D01*
X008790Y011020D01*
X008790Y009337D01*
X008413Y008960D01*
X008290Y008837D01*
X008290Y008560D01*
X008133Y008402D01*
X008133Y008098D01*
X008348Y007883D01*
X008652Y007883D01*
X008867Y008098D01*
X008867Y008402D01*
X008710Y008560D01*
X008710Y008663D01*
X009210Y009163D01*
X009210Y011020D01*
X009348Y010883D01*
X009652Y010883D01*
X009867Y011098D01*
X009867Y011402D01*
X009710Y011560D01*
X009710Y011885D01*
X010707Y012883D01*
X010930Y012883D01*
X011145Y013098D01*
X011145Y013402D01*
X010930Y013617D01*
X010625Y013617D01*
X010410Y013402D01*
X010410Y013180D01*
X009960Y012729D01*
X009960Y013413D01*
X009960Y013396D02*
X010410Y013396D01*
X010410Y013298D02*
X009960Y013298D01*
X009960Y013199D02*
X010410Y013199D01*
X010331Y013101D02*
X009960Y013101D01*
X009960Y013002D02*
X010233Y013002D01*
X010134Y012904D02*
X009960Y012904D01*
X009960Y012805D02*
X010036Y012805D01*
X010334Y012510D02*
X012971Y012510D01*
X012971Y012471D02*
X012613Y012471D01*
X012613Y012340D01*
X012840Y012113D01*
X012971Y012113D01*
X012971Y012471D01*
X013029Y012471D02*
X013029Y012113D01*
X013160Y012113D01*
X013387Y012340D01*
X013387Y012471D01*
X013029Y012471D01*
X013029Y012510D02*
X013443Y012510D01*
X013387Y012411D02*
X013540Y012411D01*
X013540Y012313D02*
X013361Y012313D01*
X013262Y012214D02*
X013540Y012214D01*
X013540Y012116D02*
X013164Y012116D01*
X013029Y012116D02*
X012971Y012116D01*
X012971Y012214D02*
X013029Y012214D01*
X013029Y012313D02*
X012971Y012313D01*
X012971Y012411D02*
X013029Y012411D01*
X012738Y012214D02*
X010039Y012214D01*
X010137Y012313D02*
X012639Y012313D01*
X012613Y012411D02*
X010236Y012411D01*
X010433Y012608D02*
X012613Y012608D01*
X012659Y012707D02*
X010531Y012707D01*
X010630Y012805D02*
X012757Y012805D01*
X012799Y012904D02*
X011924Y012904D01*
X011883Y012863D02*
X012110Y013090D01*
X012110Y013221D01*
X011751Y013221D01*
X011751Y012863D01*
X011883Y012863D01*
X011751Y012904D02*
X011694Y012904D01*
X011694Y012863D02*
X011694Y013221D01*
X011751Y013221D01*
X011751Y013279D01*
X011694Y013279D01*
X011694Y013637D01*
X011562Y013637D01*
X011335Y013410D01*
X011335Y013279D01*
X011694Y013279D01*
X011694Y013221D01*
X011335Y013221D01*
X011335Y013090D01*
X011562Y012863D01*
X011694Y012863D01*
X011694Y013002D02*
X011751Y013002D01*
X011751Y013101D02*
X011694Y013101D01*
X011694Y013199D02*
X011751Y013199D01*
X011751Y013279D02*
X012110Y013279D01*
X012110Y013410D01*
X011883Y013637D01*
X011751Y013637D01*
X011751Y013279D01*
X011751Y013298D02*
X011694Y013298D01*
X011694Y013396D02*
X011751Y013396D01*
X011751Y013495D02*
X011694Y013495D01*
X011694Y013593D02*
X011751Y013593D01*
X011927Y013593D02*
X012633Y013593D01*
X012633Y013495D02*
X012026Y013495D01*
X012110Y013396D02*
X012633Y013396D01*
X012683Y013298D02*
X012110Y013298D01*
X012110Y013199D02*
X012781Y013199D01*
X012790Y013101D02*
X012110Y013101D01*
X012022Y013002D02*
X012790Y013002D01*
X013230Y013210D02*
X013290Y013210D01*
X013290Y013270D01*
X013230Y013210D01*
X012770Y013790D02*
X010337Y013790D01*
X010239Y013692D02*
X012672Y013692D01*
X012814Y013889D02*
X010436Y013889D01*
X010534Y013987D02*
X012790Y013987D01*
X012790Y014086D02*
X010633Y014086D01*
X010731Y014184D02*
X012790Y014184D01*
X012698Y014283D02*
X010830Y014283D01*
X010928Y014381D02*
X012633Y014381D01*
X012633Y014480D02*
X011027Y014480D01*
X011125Y014578D02*
X012633Y014578D01*
X012657Y014677D02*
X011210Y014677D01*
X011210Y014775D02*
X012755Y014775D01*
X012829Y014874D02*
X011210Y014874D01*
X011210Y014972D02*
X012790Y014972D01*
X012790Y015071D02*
X011210Y015071D01*
X011210Y015169D02*
X012790Y015169D01*
X012713Y015268D02*
X011210Y015268D01*
X011210Y015366D02*
X012633Y015366D01*
X012633Y015465D02*
X011210Y015465D01*
X011210Y015563D02*
X012633Y015563D01*
X012642Y015662D02*
X011210Y015662D01*
X011210Y015760D02*
X012740Y015760D01*
X012839Y015859D02*
X011210Y015859D01*
X011210Y015957D02*
X013996Y015957D01*
X014040Y015859D02*
X013161Y015859D01*
X013260Y015760D02*
X014040Y015760D01*
X014040Y015662D02*
X013358Y015662D01*
X013367Y015563D02*
X014040Y015563D01*
X014040Y015465D02*
X013367Y015465D01*
X013367Y015366D02*
X014040Y015366D01*
X014040Y015268D02*
X013287Y015268D01*
X013378Y015169D02*
X014040Y015169D01*
X014040Y015071D02*
X013476Y015071D01*
X013575Y014972D02*
X014040Y014972D01*
X014040Y014874D02*
X013673Y014874D01*
X013710Y014775D02*
X014040Y014775D01*
X014040Y014677D02*
X013710Y014677D01*
X013710Y014578D02*
X014040Y014578D01*
X014040Y014480D02*
X013710Y014480D01*
X013710Y014381D02*
X014072Y014381D01*
X014170Y014283D02*
X013764Y014283D01*
X013863Y014184D02*
X014269Y014184D01*
X014367Y014086D02*
X013960Y014086D01*
X013960Y013987D02*
X014466Y013987D01*
X014564Y013889D02*
X013960Y013889D01*
X013960Y013790D02*
X014663Y013790D01*
X014761Y013692D02*
X013960Y013692D01*
X013960Y013593D02*
X014790Y013593D01*
X014790Y013495D02*
X014052Y013495D01*
X014151Y013396D02*
X014790Y013396D01*
X014790Y013298D02*
X014249Y013298D01*
X014348Y013199D02*
X014790Y013199D01*
X014790Y013101D02*
X014446Y013101D01*
X014460Y013002D02*
X014790Y013002D01*
X014790Y012904D02*
X014460Y012904D01*
X014460Y012805D02*
X014790Y012805D01*
X014790Y012707D02*
X014460Y012707D01*
X014460Y012608D02*
X014790Y012608D01*
X014790Y012510D02*
X014460Y012510D01*
X014460Y012411D02*
X014790Y012411D01*
X014790Y012313D02*
X014460Y012313D01*
X014460Y012214D02*
X014790Y012214D01*
X014790Y012116D02*
X014460Y012116D01*
X014460Y012017D02*
X014790Y012017D01*
X014790Y011919D02*
X014460Y011919D01*
X014460Y011820D02*
X014790Y011820D01*
X014790Y011722D02*
X014460Y011722D01*
X014460Y011623D02*
X014830Y011623D01*
X014928Y011525D02*
X014460Y011525D01*
X014460Y011426D02*
X015027Y011426D01*
X015125Y011328D02*
X014469Y011328D01*
X014568Y011229D02*
X015224Y011229D01*
X015290Y011131D02*
X014666Y011131D01*
X014765Y011032D02*
X015290Y011032D01*
X015290Y010934D02*
X014863Y010934D01*
X014960Y010835D02*
X015290Y010835D01*
X015290Y010737D02*
X014960Y010737D01*
X014960Y010638D02*
X015290Y010638D01*
X015290Y010540D02*
X014960Y010540D01*
X014960Y010441D02*
X015290Y010441D01*
X015290Y010343D02*
X014960Y010343D01*
X014960Y010244D02*
X015290Y010244D01*
X015307Y010146D02*
X014960Y010146D01*
X014960Y010047D02*
X015406Y010047D01*
X015504Y009949D02*
X014960Y009949D01*
X014960Y009850D02*
X015603Y009850D01*
X015613Y009752D02*
X014960Y009752D01*
X014960Y009653D02*
X015613Y009653D01*
X015613Y009555D02*
X014960Y009555D01*
X014960Y009456D02*
X015613Y009456D01*
X015613Y009471D02*
X015613Y009243D01*
X015623Y009205D01*
X015642Y009170D01*
X015670Y009142D01*
X015705Y009123D01*
X015743Y009113D01*
X015971Y009113D01*
X015971Y009471D01*
X015613Y009471D01*
X015613Y009358D02*
X014960Y009358D01*
X014960Y009259D02*
X015613Y009259D01*
X015652Y009161D02*
X014960Y009161D01*
X014960Y009062D02*
X018750Y009062D01*
X018750Y008964D02*
X014960Y008964D01*
X014960Y008865D02*
X018750Y008865D01*
X018750Y008767D02*
X014960Y008767D01*
X014960Y008668D02*
X018750Y008668D01*
X018750Y008570D02*
X014960Y008570D01*
X014960Y008471D02*
X018750Y008471D01*
X018750Y008373D02*
X014960Y008373D01*
X014960Y008274D02*
X018750Y008274D01*
X018750Y008176D02*
X014960Y008176D01*
X014960Y008077D02*
X018750Y008077D01*
X018750Y007979D02*
X014960Y007979D01*
X014960Y007880D02*
X018750Y007880D01*
X018750Y007782D02*
X014960Y007782D01*
X014960Y007683D02*
X018750Y007683D01*
X018750Y007585D02*
X014960Y007585D01*
X014960Y007486D02*
X018750Y007486D01*
X018750Y007388D02*
X014960Y007388D01*
X014960Y007289D02*
X018750Y007289D01*
X018750Y007191D02*
X014960Y007191D01*
X014960Y007092D02*
X018750Y007092D01*
X018750Y006994D02*
X014960Y006994D01*
X014960Y006895D02*
X018750Y006895D01*
X018750Y006797D02*
X014960Y006797D01*
X014960Y006698D02*
X018750Y006698D01*
X018750Y006600D02*
X014960Y006600D01*
X014960Y006501D02*
X018750Y006501D01*
X018750Y006403D02*
X014960Y006403D01*
X014960Y006304D02*
X018750Y006304D01*
X018750Y006206D02*
X014960Y006206D01*
X014960Y006107D02*
X018750Y006107D01*
X018750Y006009D02*
X014960Y006009D01*
X014960Y005910D02*
X018750Y005910D01*
X018750Y005812D02*
X014960Y005812D01*
X014960Y005713D02*
X018750Y005713D01*
X018750Y005615D02*
X014960Y005615D01*
X014960Y005516D02*
X018750Y005516D01*
X018750Y005418D02*
X014960Y005418D01*
X014960Y005319D02*
X018750Y005319D01*
X018750Y005221D02*
X014960Y005221D01*
X014960Y005122D02*
X018750Y005122D01*
X018750Y005024D02*
X014960Y005024D01*
X014960Y004925D02*
X018750Y004925D01*
X018750Y004827D02*
X014960Y004827D01*
X014960Y004728D02*
X018750Y004728D01*
X018750Y004630D02*
X014960Y004630D01*
X014960Y004531D02*
X018750Y004531D01*
X018750Y004433D02*
X014960Y004433D01*
X014960Y004334D02*
X018750Y004334D01*
X018750Y004236D02*
X014960Y004236D01*
X014960Y004137D02*
X018750Y004137D01*
X018750Y004039D02*
X014960Y004039D01*
X014960Y003940D02*
X018750Y003940D01*
X018750Y003842D02*
X014960Y003842D01*
X014960Y003743D02*
X018750Y003743D01*
X018750Y003645D02*
X014960Y003645D01*
X014960Y003546D02*
X018750Y003546D01*
X018750Y003448D02*
X014960Y003448D01*
X014960Y003349D02*
X018750Y003349D01*
X018750Y003251D02*
X014960Y003251D01*
X014960Y003152D02*
X018750Y003152D01*
X018750Y003054D02*
X014960Y003054D01*
X014960Y002955D02*
X018750Y002955D01*
X018750Y002857D02*
X014960Y002857D01*
X014960Y002758D02*
X018750Y002758D01*
X018750Y002660D02*
X014960Y002660D01*
X014986Y002561D02*
X018750Y002561D01*
X018750Y002463D02*
X015084Y002463D01*
X015183Y002364D02*
X018750Y002364D01*
X018750Y002266D02*
X015281Y002266D01*
X015380Y002167D02*
X018750Y002167D01*
X018750Y002069D02*
X015478Y002069D01*
X015577Y001970D02*
X018750Y001970D01*
X018750Y001872D02*
X015675Y001872D01*
X015774Y001773D02*
X017750Y001773D01*
X017696Y001281D02*
X010804Y001281D01*
X010705Y001182D02*
X017795Y001182D01*
X018205Y001182D02*
X018328Y001182D01*
X018304Y001281D02*
X018427Y001281D01*
X018370Y001379D02*
X018525Y001379D01*
X018624Y001478D02*
X018370Y001478D01*
X018370Y001576D02*
X018630Y001576D01*
X018630Y001653D02*
X018750Y001773D01*
X018230Y001084D02*
X009750Y001084D01*
X009750Y001182D02*
X010295Y001182D01*
X010196Y001281D02*
X009804Y001281D01*
X009870Y001379D02*
X010130Y001379D01*
X010130Y001478D02*
X009870Y001478D01*
X009870Y001576D02*
X010130Y001576D01*
X010151Y001675D02*
X009849Y001675D01*
X009750Y001773D02*
X010250Y001773D01*
X010750Y001773D02*
X013476Y001773D01*
X013774Y001478D02*
X015476Y001478D01*
X015377Y001576D02*
X013873Y001576D01*
X013971Y001675D02*
X015279Y001675D01*
X015180Y001773D02*
X014070Y001773D01*
X014168Y001872D02*
X015082Y001872D01*
X014983Y001970D02*
X014267Y001970D01*
X014365Y002069D02*
X014885Y002069D01*
X014786Y002167D02*
X014464Y002167D01*
X014562Y002266D02*
X014688Y002266D01*
X015574Y001379D02*
X013676Y001379D01*
X014040Y003645D02*
X008387Y003645D01*
X008333Y003743D02*
X014040Y003743D01*
X014040Y003842D02*
X008234Y003842D01*
X008029Y003842D02*
X007971Y003842D01*
X007971Y003915D02*
X007840Y003915D01*
X007613Y003688D01*
X007613Y003556D01*
X007971Y003556D01*
X007971Y003915D01*
X007971Y003743D02*
X008029Y003743D01*
X008029Y003645D02*
X007971Y003645D01*
X007766Y003842D02*
X006660Y003842D01*
X006659Y003839D02*
X006680Y003902D01*
X006689Y003960D01*
X006040Y003960D01*
X006040Y003580D01*
X006303Y003580D01*
X006368Y003590D01*
X006431Y003611D01*
X006490Y003641D01*
X006544Y003680D01*
X006590Y003726D01*
X006629Y003780D01*
X006659Y003839D01*
X006686Y003940D02*
X014040Y003940D01*
X014040Y004236D02*
X008283Y004236D01*
X008367Y004334D02*
X014040Y004334D01*
X014040Y004433D02*
X008367Y004433D01*
X008367Y004531D02*
X014040Y004531D01*
X014040Y004630D02*
X008363Y004630D01*
X008264Y004728D02*
X014040Y004728D01*
X014040Y004827D02*
X008166Y004827D01*
X007834Y004827D02*
X007517Y004827D01*
X007429Y004925D02*
X014040Y004925D01*
X014040Y005024D02*
X007330Y005024D01*
X007232Y005122D02*
X011242Y005122D01*
X011314Y005050D02*
X011050Y005314D01*
X011050Y005450D01*
X011450Y005450D01*
X011450Y005550D01*
X011450Y005950D01*
X011314Y005950D01*
X011050Y005686D01*
X011050Y005550D01*
X011450Y005550D01*
X011550Y005550D01*
X011550Y005950D01*
X011686Y005950D01*
X011950Y005686D01*
X011950Y005550D01*
X011550Y005550D01*
X011550Y005450D01*
X011950Y005450D01*
X011950Y005314D01*
X011686Y005050D01*
X011550Y005050D01*
X011550Y005450D01*
X011450Y005450D01*
X011450Y005050D01*
X011314Y005050D01*
X011450Y005122D02*
X011550Y005122D01*
X011550Y005221D02*
X011450Y005221D01*
X011450Y005319D02*
X011550Y005319D01*
X011550Y005418D02*
X011450Y005418D01*
X011450Y005516D02*
X006250Y005516D01*
X006250Y005418D02*
X011050Y005418D01*
X011050Y005319D02*
X006517Y005319D01*
X006250Y005615D02*
X011050Y005615D01*
X011077Y005713D02*
X009233Y005713D01*
X009160Y005640D02*
X009387Y005867D01*
X009387Y005999D01*
X009029Y005999D01*
X009029Y005640D01*
X009160Y005640D01*
X009029Y005713D02*
X008971Y005713D01*
X008971Y005812D02*
X009029Y005812D01*
X009029Y005910D02*
X008971Y005910D01*
X008971Y006009D02*
X006250Y006009D01*
X006250Y006107D02*
X008613Y006107D01*
X008630Y006206D02*
X006250Y006206D01*
X006250Y006304D02*
X008149Y006304D01*
X008050Y006403D02*
X006250Y006403D01*
X006250Y006501D02*
X007952Y006501D01*
X008040Y006413D02*
X008040Y006413D01*
X007853Y006600D02*
X006229Y006600D01*
X006156Y006698D02*
X007755Y006698D01*
X007656Y006797D02*
X006057Y006797D01*
X005959Y006895D02*
X007558Y006895D01*
X007459Y006994D02*
X005860Y006994D01*
X005762Y007092D02*
X007361Y007092D01*
X007262Y007191D02*
X005663Y007191D01*
X005565Y007289D02*
X007164Y007289D01*
X007065Y007388D02*
X005466Y007388D01*
X005333Y007486D02*
X006967Y007486D01*
X006868Y007585D02*
X004524Y007585D01*
X004460Y007683D02*
X006790Y007683D01*
X006790Y007782D02*
X004460Y007782D01*
X004460Y007880D02*
X006192Y007880D01*
X006205Y007873D02*
X006243Y007863D01*
X006471Y007863D01*
X006471Y008221D01*
X006113Y008221D01*
X006113Y007993D01*
X006123Y007955D01*
X006142Y007920D01*
X006170Y007892D01*
X006205Y007873D01*
X006116Y007979D02*
X004460Y007979D01*
X004460Y008077D02*
X006113Y008077D01*
X006113Y008176D02*
X004460Y008176D01*
X004460Y008274D02*
X006471Y008274D01*
X006471Y008176D02*
X006529Y008176D01*
X006529Y008077D02*
X006471Y008077D01*
X006471Y007979D02*
X006529Y007979D01*
X006529Y007880D02*
X006471Y007880D01*
X006471Y008373D02*
X006529Y008373D01*
X006529Y008471D02*
X006471Y008471D01*
X006471Y008570D02*
X006529Y008570D01*
X006790Y008668D02*
X004460Y008668D01*
X004460Y008570D02*
X006137Y008570D01*
X006113Y008471D02*
X004460Y008471D01*
X004460Y008373D02*
X006113Y008373D01*
X006790Y008767D02*
X004460Y008767D01*
X004460Y008865D02*
X006790Y008865D01*
X006790Y008964D02*
X004460Y008964D01*
X004460Y009062D02*
X006790Y009062D01*
X006790Y009161D02*
X004460Y009161D01*
X004460Y009259D02*
X006790Y009259D01*
X006790Y009358D02*
X004460Y009358D01*
X004503Y009456D02*
X006790Y009456D01*
X006790Y009555D02*
X004602Y009555D01*
X004700Y009653D02*
X006790Y009653D01*
X006790Y009752D02*
X004799Y009752D01*
X004897Y009850D02*
X006790Y009850D01*
X006790Y009949D02*
X004996Y009949D01*
X005094Y010047D02*
X006790Y010047D01*
X006790Y010146D02*
X005193Y010146D01*
X005291Y010244D02*
X006790Y010244D01*
X006790Y010343D02*
X005390Y010343D01*
X005488Y010441D02*
X006790Y010441D01*
X006790Y010540D02*
X005587Y010540D01*
X005685Y010638D02*
X006790Y010638D01*
X006716Y010737D02*
X005784Y010737D01*
X005882Y010835D02*
X006618Y010835D01*
X007015Y011032D02*
X007198Y011032D01*
X007133Y011131D02*
X006916Y011131D01*
X006867Y011229D02*
X007133Y011229D01*
X007133Y011328D02*
X006867Y011328D01*
X006844Y011426D02*
X007156Y011426D01*
X007255Y011525D02*
X006745Y011525D01*
X007133Y011820D02*
X004428Y011820D01*
X004527Y011919D02*
X007034Y011919D01*
X006936Y012017D02*
X004625Y012017D01*
X004599Y012510D02*
X008713Y012510D01*
X008811Y012608D02*
X004500Y012608D01*
X004460Y012707D02*
X008910Y012707D01*
X009008Y012805D02*
X004460Y012805D01*
X004512Y012904D02*
X008988Y012904D01*
X008890Y013002D02*
X004610Y013002D01*
X004680Y013101D02*
X008820Y013101D01*
X008820Y013199D02*
X004680Y013199D01*
X004680Y013298D02*
X008820Y013298D01*
X008820Y013396D02*
X004680Y013396D01*
X004614Y013495D02*
X008886Y013495D01*
X008985Y013593D02*
X004515Y013593D01*
X003856Y015465D02*
X003610Y015465D01*
X003610Y015563D02*
X003955Y015563D01*
X004053Y015662D02*
X003574Y015662D01*
X003372Y016154D02*
X007049Y016154D01*
X007147Y016056D02*
X002210Y016056D01*
X002210Y016154D02*
X002628Y016154D01*
X002484Y016253D02*
X002210Y016253D01*
X002210Y016351D02*
X002421Y016351D01*
X002390Y016450D02*
X002210Y016450D01*
X002210Y016548D02*
X002390Y016548D01*
X002420Y016647D02*
X002210Y016647D01*
X002210Y016745D02*
X002482Y016745D01*
X002623Y016844D02*
X002210Y016844D01*
X002239Y016942D02*
X003950Y016942D01*
X004048Y016844D02*
X003377Y016844D01*
X003518Y016745D02*
X008458Y016745D01*
X008556Y016647D02*
X007150Y016647D01*
X007249Y016548D02*
X008655Y016548D01*
X008753Y016450D02*
X007347Y016450D01*
X007446Y016351D02*
X008852Y016351D01*
X008790Y016413D02*
X008790Y016413D01*
X008359Y016844D02*
X004452Y016844D01*
X004550Y016942D02*
X008261Y016942D01*
X007544Y016253D02*
X010290Y016253D01*
X010290Y016351D02*
X009648Y016351D01*
X009747Y016450D02*
X010290Y016450D01*
X010290Y016548D02*
X009845Y016548D01*
X009944Y016647D02*
X010290Y016647D01*
X010290Y016745D02*
X010042Y016745D01*
X010141Y016844D02*
X010290Y016844D01*
X010290Y016942D02*
X010239Y016942D01*
X010290Y016154D02*
X007643Y016154D01*
X007741Y016056D02*
X010259Y016056D01*
X010160Y015957D02*
X007840Y015957D01*
X007938Y015859D02*
X010062Y015859D01*
X009963Y015760D02*
X008037Y015760D01*
X008135Y015662D02*
X009053Y015662D01*
X008955Y015563D02*
X008234Y015563D01*
X008332Y015465D02*
X008856Y015465D01*
X009447Y015662D02*
X009865Y015662D01*
X009766Y015563D02*
X009545Y015563D01*
X009644Y015465D02*
X009668Y015465D01*
X009966Y015169D02*
X010540Y015169D01*
X010540Y015268D02*
X010065Y015268D01*
X010163Y015366D02*
X010540Y015366D01*
X010540Y015465D02*
X010262Y015465D01*
X010360Y015563D02*
X010540Y015563D01*
X010540Y015662D02*
X010459Y015662D01*
X010524Y015071D02*
X009868Y015071D01*
X009580Y014972D02*
X010425Y014972D01*
X010327Y014874D02*
X009482Y014874D01*
X010140Y013593D02*
X010601Y013593D01*
X010502Y013495D02*
X010042Y013495D01*
X009540Y012932D02*
X009540Y012837D01*
X009460Y012757D01*
X009460Y012837D01*
X009460Y012852D01*
X009540Y012932D01*
X009540Y012904D02*
X009512Y012904D01*
X009508Y012805D02*
X009460Y012805D01*
X009290Y011993D02*
X009290Y011560D01*
X009210Y011480D01*
X009210Y011913D01*
X009290Y011993D01*
X009290Y011919D02*
X009216Y011919D01*
X009210Y011820D02*
X009290Y011820D01*
X009290Y011722D02*
X009210Y011722D01*
X009210Y011623D02*
X009290Y011623D01*
X009255Y011525D02*
X009210Y011525D01*
X008790Y011525D02*
X008745Y011525D01*
X008710Y011560D02*
X008790Y011480D01*
X008790Y011993D01*
X008710Y011913D01*
X008710Y011560D01*
X008710Y011623D02*
X008790Y011623D01*
X008790Y011722D02*
X008710Y011722D01*
X008710Y011820D02*
X008790Y011820D01*
X008790Y011919D02*
X008716Y011919D01*
X008417Y012214D02*
X007333Y012214D01*
X007431Y012116D02*
X008319Y012116D01*
X008290Y012017D02*
X007530Y012017D01*
X007628Y011919D02*
X008290Y011919D01*
X008290Y011820D02*
X007710Y011820D01*
X007710Y011722D02*
X008290Y011722D01*
X008290Y011623D02*
X007710Y011623D01*
X007745Y011525D02*
X008255Y011525D01*
X008156Y011426D02*
X007844Y011426D01*
X007867Y011328D02*
X008133Y011328D01*
X008133Y011229D02*
X007867Y011229D01*
X007867Y011131D02*
X008133Y011131D01*
X008198Y011032D02*
X007802Y011032D01*
X007703Y010934D02*
X008290Y010934D01*
X008290Y010835D02*
X007210Y010835D01*
X007210Y010737D02*
X008290Y010737D01*
X008290Y010638D02*
X007210Y010638D01*
X007210Y010540D02*
X008290Y010540D01*
X008290Y010441D02*
X007210Y010441D01*
X007210Y010343D02*
X008290Y010343D01*
X008197Y010244D02*
X007210Y010244D01*
X007210Y010146D02*
X008099Y010146D01*
X008000Y010047D02*
X007210Y010047D01*
X007210Y009949D02*
X007902Y009949D01*
X007803Y009850D02*
X007210Y009850D01*
X007210Y009752D02*
X007705Y009752D01*
X007606Y009653D02*
X007210Y009653D01*
X007210Y009555D02*
X007508Y009555D01*
X007409Y009456D02*
X007210Y009456D01*
X007210Y009358D02*
X007311Y009358D01*
X007290Y009259D02*
X007210Y009259D01*
X007210Y009161D02*
X007290Y009161D01*
X007290Y009062D02*
X007210Y009062D01*
X007210Y008964D02*
X007290Y008964D01*
X007290Y008865D02*
X007210Y008865D01*
X007210Y008767D02*
X007290Y008767D01*
X007290Y008668D02*
X007210Y008668D01*
X007210Y008570D02*
X007290Y008570D01*
X007710Y008570D02*
X008290Y008570D01*
X008290Y008668D02*
X007710Y008668D01*
X007710Y008767D02*
X008290Y008767D01*
X008318Y008865D02*
X007710Y008865D01*
X007710Y008964D02*
X008417Y008964D01*
X008515Y009062D02*
X007710Y009062D01*
X007710Y009161D02*
X008614Y009161D01*
X008712Y009259D02*
X007806Y009259D01*
X007905Y009358D02*
X008790Y009358D01*
X008790Y009456D02*
X008003Y009456D01*
X008102Y009555D02*
X008790Y009555D01*
X008790Y009653D02*
X008200Y009653D01*
X008299Y009752D02*
X008790Y009752D01*
X008790Y009850D02*
X008397Y009850D01*
X008496Y009949D02*
X008790Y009949D01*
X008790Y010047D02*
X008594Y010047D01*
X008693Y010146D02*
X008790Y010146D01*
X008790Y010244D02*
X008710Y010244D01*
X008710Y010343D02*
X008790Y010343D01*
X008790Y010441D02*
X008710Y010441D01*
X008710Y010540D02*
X008790Y010540D01*
X008790Y010638D02*
X008710Y010638D01*
X008710Y010737D02*
X008790Y010737D01*
X008790Y010835D02*
X008710Y010835D01*
X008710Y010934D02*
X008790Y010934D01*
X009210Y010934D02*
X009297Y010934D01*
X009210Y010835D02*
X011227Y010835D01*
X011322Y010930D02*
X011070Y010678D01*
X011070Y010322D01*
X011322Y010070D01*
X011678Y010070D01*
X011898Y010290D01*
X012690Y010290D01*
X012848Y010133D01*
X013152Y010133D01*
X013367Y010348D01*
X013367Y010652D01*
X013152Y010867D01*
X012848Y010867D01*
X012690Y010710D01*
X011898Y010710D01*
X011678Y010930D01*
X011322Y010930D01*
X011128Y010737D02*
X009210Y010737D01*
X009210Y010638D02*
X011070Y010638D01*
X011070Y010540D02*
X009210Y010540D01*
X009210Y010441D02*
X011070Y010441D01*
X011070Y010343D02*
X009210Y010343D01*
X009210Y010244D02*
X011148Y010244D01*
X011246Y010146D02*
X009210Y010146D01*
X009210Y010047D02*
X014040Y010047D01*
X014040Y009949D02*
X009210Y009949D01*
X009210Y009850D02*
X012830Y009850D01*
X012732Y009752D02*
X009210Y009752D01*
X009210Y009653D02*
X009856Y009653D01*
X009758Y009555D02*
X009210Y009555D01*
X009210Y009456D02*
X009659Y009456D01*
X009561Y009358D02*
X009210Y009358D01*
X009210Y009259D02*
X009462Y009259D01*
X009364Y009161D02*
X009208Y009161D01*
X009290Y009062D02*
X009109Y009062D01*
X009011Y008964D02*
X009290Y008964D01*
X009290Y008865D02*
X008912Y008865D01*
X008814Y008767D02*
X009290Y008767D01*
X009290Y008668D02*
X008715Y008668D01*
X008710Y008570D02*
X009290Y008570D01*
X009201Y008471D02*
X008799Y008471D01*
X008867Y008373D02*
X009133Y008373D01*
X009133Y008274D02*
X008867Y008274D01*
X008867Y008176D02*
X009133Y008176D01*
X009153Y008077D02*
X008847Y008077D01*
X008748Y007979D02*
X009252Y007979D01*
X009290Y007880D02*
X007710Y007880D01*
X007748Y007979D02*
X008252Y007979D01*
X008153Y008077D02*
X007847Y008077D01*
X007867Y008176D02*
X008133Y008176D01*
X008133Y008274D02*
X007867Y008274D01*
X007867Y008373D02*
X008133Y008373D01*
X008201Y008471D02*
X007799Y008471D01*
X007290Y007940D02*
X007290Y007757D01*
X007210Y007837D01*
X007210Y008020D01*
X007290Y007940D01*
X007252Y007979D02*
X007210Y007979D01*
X007210Y007880D02*
X007290Y007880D01*
X007290Y007782D02*
X007265Y007782D01*
X007765Y007782D02*
X009290Y007782D01*
X009290Y007683D02*
X007864Y007683D01*
X007962Y007585D02*
X009290Y007585D01*
X009290Y007486D02*
X008061Y007486D01*
X008159Y007388D02*
X009290Y007388D01*
X009290Y007289D02*
X009203Y007289D01*
X008797Y007289D02*
X008258Y007289D01*
X008257Y006790D02*
X008663Y006790D01*
X008743Y006710D01*
X008337Y006710D01*
X008257Y006790D01*
X008613Y005910D02*
X006250Y005910D01*
X006250Y005812D02*
X008668Y005812D01*
X008767Y005713D02*
X006250Y005713D01*
X005750Y005713D02*
X000200Y005713D01*
X000200Y005615D02*
X005750Y005615D01*
X005750Y005516D02*
X000200Y005516D01*
X000200Y005418D02*
X005750Y005418D01*
X005750Y005400D02*
X005650Y005400D01*
X005503Y005339D01*
X005391Y005227D01*
X005330Y005080D01*
X005330Y004920D01*
X005391Y004773D01*
X005503Y004661D01*
X005650Y004600D01*
X006350Y004600D01*
X006497Y004661D01*
X006586Y004750D01*
X006896Y004750D01*
X007068Y004578D01*
X007253Y004370D01*
X007253Y004370D01*
X007286Y004333D01*
X007319Y004297D01*
X007319Y004296D01*
X007320Y004296D01*
X007364Y004275D01*
X007408Y004253D01*
X007409Y004253D01*
X007410Y004253D01*
X007459Y004250D01*
X007508Y004248D01*
X007716Y004237D01*
X007848Y004105D01*
X008152Y004105D01*
X007816Y004137D02*
X006667Y004137D01*
X006618Y004236D02*
X007717Y004236D01*
X007508Y004248D02*
X007508Y004248D01*
X007285Y004334D02*
X006525Y004334D01*
X006421Y004630D02*
X007017Y004630D01*
X007110Y004531D02*
X000200Y004531D01*
X000200Y004433D02*
X007198Y004433D01*
X006918Y004728D02*
X006564Y004728D01*
X006040Y004334D02*
X005960Y004334D01*
X005960Y004236D02*
X006040Y004236D01*
X006040Y004137D02*
X005960Y004137D01*
X005960Y003940D02*
X006040Y003940D01*
X006040Y003842D02*
X005960Y003842D01*
X005960Y003743D02*
X006040Y003743D01*
X006040Y003645D02*
X005960Y003645D01*
X005382Y004236D02*
X000200Y004236D01*
X000200Y004334D02*
X005475Y004334D01*
X005333Y004137D02*
X000200Y004137D01*
X000200Y004630D02*
X005579Y004630D01*
X005436Y004728D02*
X000200Y004728D01*
X000200Y004827D02*
X005369Y004827D01*
X005330Y004925D02*
X000200Y004925D01*
X000200Y005024D02*
X005330Y005024D01*
X005348Y005122D02*
X000200Y005122D01*
X000200Y005221D02*
X005388Y005221D01*
X005483Y005319D02*
X000200Y005319D01*
X000200Y005812D02*
X005750Y005812D01*
X005750Y005910D02*
X000200Y005910D01*
X000200Y006009D02*
X005750Y006009D01*
X005750Y006107D02*
X000200Y006107D01*
X000200Y006206D02*
X005750Y006206D01*
X005750Y006304D02*
X000200Y006304D01*
X000200Y006403D02*
X005744Y006403D01*
X005750Y006396D02*
X005750Y005400D01*
X005750Y006396D02*
X005146Y007000D01*
X004608Y007000D01*
X004428Y006820D01*
X004072Y006820D01*
X003892Y007000D01*
X003529Y007000D01*
X003508Y006995D01*
X003479Y007000D01*
X003450Y007000D01*
X003431Y007008D01*
X003410Y007012D01*
X003385Y007027D01*
X003358Y007038D01*
X003343Y007053D01*
X003325Y007064D01*
X003309Y007088D01*
X003288Y007108D01*
X003280Y007128D01*
X002121Y008750D01*
X001450Y008750D01*
X001358Y008788D01*
X000858Y009288D01*
X000788Y009358D01*
X000750Y009450D01*
X000750Y009727D01*
X000630Y009847D01*
X000630Y010153D01*
X000750Y010273D01*
X000750Y018227D01*
X000630Y018347D01*
X000630Y018653D01*
X000847Y018870D01*
X001016Y018870D01*
X001538Y019392D01*
X001452Y019306D02*
X000200Y019306D01*
X000200Y019208D02*
X001354Y019208D01*
X001255Y019109D02*
X000200Y019109D01*
X000200Y019011D02*
X001157Y019011D01*
X001058Y018912D02*
X000200Y018912D01*
X000200Y018814D02*
X000790Y018814D01*
X000692Y018715D02*
X000200Y018715D01*
X000200Y018617D02*
X000630Y018617D01*
X000630Y018518D02*
X000200Y018518D01*
X000200Y018420D02*
X000630Y018420D01*
X000656Y018321D02*
X000200Y018321D01*
X000200Y018223D02*
X000750Y018223D01*
X000750Y018124D02*
X000200Y018124D01*
X000200Y018026D02*
X000750Y018026D01*
X000750Y017927D02*
X000200Y017927D01*
X000200Y017829D02*
X000750Y017829D01*
X000750Y017730D02*
X000200Y017730D01*
X000200Y017632D02*
X000750Y017632D01*
X000750Y017533D02*
X000200Y017533D01*
X000200Y017435D02*
X000750Y017435D01*
X000750Y017336D02*
X000200Y017336D01*
X000200Y017238D02*
X000750Y017238D01*
X000750Y017139D02*
X000200Y017139D01*
X000200Y017041D02*
X000750Y017041D01*
X000750Y016942D02*
X000200Y016942D01*
X000200Y016844D02*
X000750Y016844D01*
X000750Y016745D02*
X000200Y016745D01*
X000200Y016647D02*
X000750Y016647D01*
X000750Y016548D02*
X000200Y016548D01*
X000200Y016450D02*
X000750Y016450D01*
X000750Y016351D02*
X000200Y016351D01*
X000200Y016253D02*
X000750Y016253D01*
X000750Y016154D02*
X000200Y016154D01*
X000200Y016056D02*
X000750Y016056D01*
X000750Y015957D02*
X000200Y015957D01*
X000200Y015859D02*
X000750Y015859D01*
X000750Y015760D02*
X000200Y015760D01*
X000200Y015662D02*
X000750Y015662D01*
X000750Y015563D02*
X000200Y015563D01*
X000200Y015465D02*
X000750Y015465D01*
X000750Y015366D02*
X000200Y015366D01*
X000200Y015268D02*
X000750Y015268D01*
X000750Y015169D02*
X000200Y015169D01*
X000200Y015071D02*
X000750Y015071D01*
X000750Y014972D02*
X000200Y014972D01*
X000200Y014874D02*
X000750Y014874D01*
X000750Y014775D02*
X000200Y014775D01*
X000200Y014677D02*
X000750Y014677D01*
X000750Y014578D02*
X000200Y014578D01*
X000200Y014480D02*
X000750Y014480D01*
X000750Y014381D02*
X000200Y014381D01*
X000200Y014283D02*
X000750Y014283D01*
X000750Y014184D02*
X000200Y014184D01*
X000200Y014086D02*
X000750Y014086D01*
X000750Y013987D02*
X000200Y013987D01*
X000200Y013889D02*
X000750Y013889D01*
X000750Y013790D02*
X000200Y013790D01*
X000200Y013692D02*
X000750Y013692D01*
X000750Y013593D02*
X000200Y013593D01*
X000200Y013495D02*
X000750Y013495D01*
X000750Y013396D02*
X000200Y013396D01*
X000200Y013298D02*
X000750Y013298D01*
X000750Y013199D02*
X000200Y013199D01*
X000200Y013101D02*
X000750Y013101D01*
X000750Y013002D02*
X000200Y013002D01*
X000200Y012904D02*
X000750Y012904D01*
X000750Y012805D02*
X000200Y012805D01*
X000200Y012707D02*
X000750Y012707D01*
X000750Y012608D02*
X000200Y012608D01*
X000200Y012510D02*
X000750Y012510D01*
X000750Y012411D02*
X000200Y012411D01*
X000200Y012313D02*
X000750Y012313D01*
X000750Y012214D02*
X000200Y012214D01*
X000200Y012116D02*
X000750Y012116D01*
X000750Y012017D02*
X000200Y012017D01*
X000200Y011919D02*
X000750Y011919D01*
X000750Y011820D02*
X000200Y011820D01*
X000200Y011722D02*
X000750Y011722D01*
X000750Y011623D02*
X000200Y011623D01*
X000200Y011525D02*
X000750Y011525D01*
X000750Y011426D02*
X000200Y011426D01*
X000200Y011328D02*
X000750Y011328D01*
X000750Y011229D02*
X000200Y011229D01*
X000200Y011131D02*
X000750Y011131D01*
X000750Y011032D02*
X000200Y011032D01*
X000200Y010934D02*
X000750Y010934D01*
X000750Y010835D02*
X000200Y010835D01*
X000200Y010737D02*
X000750Y010737D01*
X000750Y010638D02*
X000200Y010638D01*
X000200Y010540D02*
X000750Y010540D01*
X000750Y010441D02*
X000200Y010441D01*
X000200Y010343D02*
X000750Y010343D01*
X000721Y010244D02*
X000200Y010244D01*
X000200Y010146D02*
X000630Y010146D01*
X000630Y010047D02*
X000200Y010047D01*
X000200Y009949D02*
X000630Y009949D01*
X000630Y009850D02*
X000200Y009850D01*
X000200Y009752D02*
X000725Y009752D01*
X000750Y009653D02*
X000200Y009653D01*
X000200Y009555D02*
X000750Y009555D01*
X000750Y009456D02*
X000200Y009456D01*
X000200Y009358D02*
X000789Y009358D01*
X000887Y009259D02*
X000200Y009259D01*
X000200Y009161D02*
X000986Y009161D01*
X001084Y009062D02*
X000200Y009062D01*
X000200Y008964D02*
X001183Y008964D01*
X001281Y008865D02*
X000200Y008865D01*
X000200Y008767D02*
X001410Y008767D01*
X001595Y009259D02*
X004040Y009259D01*
X004040Y009161D02*
X002443Y009161D01*
X002513Y009062D02*
X004040Y009062D01*
X004040Y008964D02*
X002583Y008964D01*
X002654Y008865D02*
X004040Y008865D01*
X004040Y008767D02*
X002724Y008767D01*
X002794Y008668D02*
X004040Y008668D01*
X004040Y008570D02*
X002865Y008570D01*
X002935Y008471D02*
X004040Y008471D01*
X004040Y008373D02*
X003005Y008373D01*
X003076Y008274D02*
X004040Y008274D01*
X004040Y008176D02*
X003146Y008176D01*
X003216Y008077D02*
X004040Y008077D01*
X004040Y007979D02*
X003287Y007979D01*
X003357Y007880D02*
X004040Y007880D01*
X004040Y007782D02*
X003428Y007782D01*
X003498Y007683D02*
X004040Y007683D01*
X003976Y007585D02*
X003568Y007585D01*
X003165Y007289D02*
X000200Y007289D01*
X000200Y007191D02*
X003235Y007191D01*
X003304Y007092D02*
X000200Y007092D01*
X000200Y006994D02*
X003898Y006994D01*
X003997Y006895D02*
X000200Y006895D01*
X000200Y006797D02*
X005350Y006797D01*
X005251Y006895D02*
X004503Y006895D01*
X004602Y006994D02*
X005153Y006994D01*
X005448Y006698D02*
X000200Y006698D01*
X000200Y006600D02*
X005547Y006600D01*
X005645Y006501D02*
X000200Y006501D01*
X000200Y007388D02*
X003095Y007388D01*
X003024Y007486D02*
X000200Y007486D01*
X000200Y007585D02*
X002954Y007585D01*
X002883Y007683D02*
X000200Y007683D01*
X000200Y007782D02*
X002813Y007782D01*
X002743Y007880D02*
X000200Y007880D01*
X000200Y007979D02*
X002672Y007979D01*
X002602Y008077D02*
X000200Y008077D01*
X000200Y008176D02*
X002532Y008176D01*
X002461Y008274D02*
X000200Y008274D01*
X000200Y008373D02*
X002391Y008373D01*
X002321Y008471D02*
X000200Y008471D01*
X000200Y008570D02*
X002250Y008570D01*
X002180Y008668D02*
X000200Y008668D01*
X001299Y009555D02*
X004040Y009555D01*
X004040Y009456D02*
X001398Y009456D01*
X001496Y009358D02*
X004040Y009358D01*
X005981Y010934D02*
X006297Y010934D01*
X006198Y011032D02*
X006079Y011032D01*
X007113Y010934D02*
X007297Y010934D01*
X007234Y012313D02*
X008516Y012313D01*
X008614Y012411D02*
X007136Y012411D01*
X009710Y011820D02*
X012772Y011820D01*
X012840Y011887D02*
X012613Y011660D01*
X012613Y011529D01*
X012971Y011529D01*
X012971Y011887D01*
X012840Y011887D01*
X012971Y011820D02*
X013029Y011820D01*
X013029Y011887D02*
X013029Y011529D01*
X012971Y011529D01*
X012971Y011471D01*
X012613Y011471D01*
X012613Y011340D01*
X012840Y011113D01*
X012971Y011113D01*
X012971Y011471D01*
X013029Y011471D01*
X013029Y011529D01*
X013387Y011529D01*
X013387Y011660D01*
X013160Y011887D01*
X013029Y011887D01*
X013029Y011722D02*
X012971Y011722D01*
X012971Y011623D02*
X013029Y011623D01*
X013029Y011525D02*
X013540Y011525D01*
X013540Y011623D02*
X013387Y011623D01*
X013326Y011722D02*
X013540Y011722D01*
X013540Y011820D02*
X013228Y011820D01*
X013540Y011919D02*
X009743Y011919D01*
X009842Y012017D02*
X013540Y012017D01*
X012971Y011525D02*
X009745Y011525D01*
X009710Y011623D02*
X012613Y011623D01*
X012674Y011722D02*
X009710Y011722D01*
X009940Y012116D02*
X012836Y012116D01*
X013029Y011471D02*
X013387Y011471D01*
X013387Y011340D01*
X013160Y011113D01*
X013029Y011113D01*
X013029Y011471D01*
X013029Y011426D02*
X012971Y011426D01*
X012971Y011328D02*
X013029Y011328D01*
X013029Y011229D02*
X012971Y011229D01*
X012971Y011131D02*
X013029Y011131D01*
X013179Y011131D02*
X013540Y011131D01*
X013540Y011229D02*
X013277Y011229D01*
X013376Y011328D02*
X013540Y011328D01*
X013540Y011426D02*
X013387Y011426D01*
X013540Y011032D02*
X009802Y011032D01*
X009867Y011131D02*
X012821Y011131D01*
X012723Y011229D02*
X009867Y011229D01*
X009867Y011328D02*
X012624Y011328D01*
X012613Y011426D02*
X009844Y011426D01*
X009703Y010934D02*
X013540Y010934D01*
X013540Y010835D02*
X013185Y010835D01*
X013283Y010737D02*
X013540Y010737D01*
X013565Y010638D02*
X013367Y010638D01*
X013367Y010540D02*
X013663Y010540D01*
X013762Y010441D02*
X013367Y010441D01*
X013362Y010343D02*
X013860Y010343D01*
X013959Y010244D02*
X013264Y010244D01*
X013165Y010146D02*
X014040Y010146D01*
X014040Y009850D02*
X013170Y009850D01*
X013268Y009752D02*
X014040Y009752D01*
X014040Y009653D02*
X013367Y009653D01*
X013367Y009555D02*
X014040Y009555D01*
X014040Y009456D02*
X013367Y009456D01*
X013367Y009358D02*
X014040Y009358D01*
X014040Y009259D02*
X013279Y009259D01*
X013180Y009161D02*
X014040Y009161D01*
X014040Y009062D02*
X009859Y009062D01*
X009761Y008964D02*
X014040Y008964D01*
X014040Y008865D02*
X009710Y008865D01*
X009710Y008767D02*
X014040Y008767D01*
X014040Y008668D02*
X009710Y008668D01*
X009710Y008570D02*
X014040Y008570D01*
X014040Y008471D02*
X009799Y008471D01*
X009867Y008373D02*
X014040Y008373D01*
X014040Y008274D02*
X009867Y008274D01*
X009867Y008176D02*
X014040Y008176D01*
X014040Y008077D02*
X009847Y008077D01*
X009748Y007979D02*
X014040Y007979D01*
X014040Y007880D02*
X009710Y007880D01*
X009710Y007782D02*
X014040Y007782D01*
X014040Y007683D02*
X009710Y007683D01*
X009710Y007585D02*
X014040Y007585D01*
X014040Y007486D02*
X009710Y007486D01*
X009710Y007388D02*
X014040Y007388D01*
X014040Y007289D02*
X009710Y007289D01*
X009710Y007191D02*
X014040Y007191D01*
X014040Y007092D02*
X009710Y007092D01*
X009710Y006994D02*
X014040Y006994D01*
X014040Y006895D02*
X009710Y006895D01*
X009710Y006797D02*
X014040Y006797D01*
X014040Y006698D02*
X009710Y006698D01*
X009647Y006600D02*
X014040Y006600D01*
X014040Y006501D02*
X009548Y006501D01*
X009450Y006403D02*
X014040Y006403D01*
X014040Y006304D02*
X009351Y006304D01*
X009370Y006206D02*
X014040Y006206D01*
X014040Y006107D02*
X009387Y006107D01*
X009387Y005910D02*
X011274Y005910D01*
X011175Y005812D02*
X009332Y005812D01*
X009029Y006009D02*
X014040Y006009D01*
X014040Y005910D02*
X011726Y005910D01*
X011825Y005812D02*
X014040Y005812D01*
X014040Y005713D02*
X011923Y005713D01*
X011950Y005615D02*
X014040Y005615D01*
X014040Y005516D02*
X011550Y005516D01*
X011550Y005615D02*
X011450Y005615D01*
X011450Y005713D02*
X011550Y005713D01*
X011550Y005812D02*
X011450Y005812D01*
X011450Y005910D02*
X011550Y005910D01*
X011950Y005418D02*
X014040Y005418D01*
X014040Y005319D02*
X011950Y005319D01*
X011857Y005221D02*
X014040Y005221D01*
X014040Y005122D02*
X011758Y005122D01*
X011143Y005221D02*
X007121Y005221D01*
X007212Y005142D02*
X007212Y005142D01*
X007667Y003743D02*
X006602Y003743D01*
X006495Y003645D02*
X007613Y003645D01*
X009958Y009161D02*
X012820Y009161D01*
X012721Y009259D02*
X010056Y009259D01*
X011754Y010146D02*
X012835Y010146D01*
X012736Y010244D02*
X011852Y010244D01*
X011872Y010737D02*
X012717Y010737D01*
X012815Y010835D02*
X011773Y010835D01*
X011521Y012904D02*
X010951Y012904D01*
X011049Y013002D02*
X011422Y013002D01*
X011335Y013101D02*
X011145Y013101D01*
X011145Y013199D02*
X011335Y013199D01*
X011335Y013298D02*
X011145Y013298D01*
X011145Y013396D02*
X011335Y013396D01*
X011419Y013495D02*
X011053Y013495D01*
X010954Y013593D02*
X011517Y013593D01*
X013230Y014210D02*
X013290Y014270D01*
X013290Y014210D01*
X013230Y014210D01*
X013897Y016056D02*
X011210Y016056D01*
X011210Y016154D02*
X012826Y016154D01*
X012728Y016253D02*
X011210Y016253D01*
X011210Y016351D02*
X012633Y016351D01*
X012633Y016450D02*
X011247Y016450D01*
X011345Y016548D02*
X012633Y016548D01*
X012633Y016647D02*
X011444Y016647D01*
X011542Y016745D02*
X012725Y016745D01*
X013174Y016154D02*
X013799Y016154D01*
X013700Y016253D02*
X013272Y016253D01*
X013310Y016710D02*
X013230Y016790D01*
X013663Y016790D01*
X013743Y016710D01*
X013310Y016710D01*
X013275Y016745D02*
X013708Y016745D01*
X014427Y018026D02*
X009271Y018026D01*
X009173Y018124D02*
X014329Y018124D01*
X014230Y018223D02*
X010746Y018223D01*
X010808Y018715D02*
X017692Y018715D01*
X017630Y018617D02*
X014430Y018617D01*
X014529Y018518D02*
X017630Y018518D01*
X017630Y018420D02*
X014627Y018420D01*
X014726Y018321D02*
X017656Y018321D01*
X017754Y018223D02*
X014824Y018223D01*
X014923Y018124D02*
X017790Y018124D01*
X017790Y018026D02*
X015021Y018026D01*
X015120Y017927D02*
X017790Y017927D01*
X017790Y017829D02*
X015218Y017829D01*
X015317Y017730D02*
X017790Y017730D01*
X017790Y017632D02*
X015415Y017632D01*
X015514Y017533D02*
X017736Y017533D01*
X017638Y017435D02*
X015612Y017435D01*
X015710Y017336D02*
X017539Y017336D01*
X017441Y017238D02*
X015710Y017238D01*
X015710Y017139D02*
X017342Y017139D01*
X017244Y017041D02*
X015710Y017041D01*
X015710Y016942D02*
X017145Y016942D01*
X017047Y016844D02*
X016176Y016844D01*
X016275Y016745D02*
X016948Y016745D01*
X017247Y016450D02*
X018750Y016450D01*
X018750Y016548D02*
X017345Y016548D01*
X017444Y016647D02*
X018750Y016647D01*
X018750Y016745D02*
X017542Y016745D01*
X017641Y016844D02*
X018750Y016844D01*
X018750Y016942D02*
X017739Y016942D01*
X017838Y017041D02*
X018750Y017041D01*
X018750Y017139D02*
X017936Y017139D01*
X018035Y017238D02*
X018750Y017238D01*
X018750Y017336D02*
X018133Y017336D01*
X018210Y017435D02*
X018750Y017435D01*
X018750Y017533D02*
X018210Y017533D01*
X018210Y017632D02*
X018750Y017632D01*
X018750Y017730D02*
X018210Y017730D01*
X018210Y017829D02*
X018750Y017829D01*
X018750Y017927D02*
X018210Y017927D01*
X018210Y018026D02*
X018750Y018026D01*
X018750Y018124D02*
X018210Y018124D01*
X018246Y018223D02*
X018750Y018223D01*
X018656Y018321D02*
X018344Y018321D01*
X018370Y018420D02*
X018630Y018420D01*
X018628Y018518D02*
X018370Y018518D01*
X018370Y018617D02*
X018530Y018617D01*
X018431Y018715D02*
X018308Y018715D01*
X018333Y018814D02*
X018210Y018814D01*
X017790Y018814D02*
X010710Y018814D01*
X009250Y018814D02*
X008483Y018814D01*
X008385Y018912D02*
X009250Y018912D01*
X009192Y018715D02*
X008582Y018715D01*
X008680Y018617D02*
X009130Y018617D01*
X009130Y018518D02*
X008779Y018518D01*
X008877Y018420D02*
X009130Y018420D01*
X009156Y018321D02*
X008976Y018321D01*
X009074Y018223D02*
X009254Y018223D01*
X006950Y016253D02*
X003516Y016253D01*
X000200Y019602D02*
X019800Y019602D01*
X019800Y019700D02*
X000200Y019700D01*
X000200Y019799D02*
X019800Y019799D01*
X019800Y019800D02*
X019800Y000200D01*
X000200Y000200D01*
X000200Y019800D01*
X019800Y019800D01*
X018750Y016351D02*
X017148Y016351D01*
X016367Y015563D02*
X018750Y015563D01*
X018750Y015465D02*
X016367Y015465D01*
X016367Y015366D02*
X018750Y015366D01*
X018750Y015268D02*
X016287Y015268D01*
X016378Y015169D02*
X018750Y015169D01*
X018750Y015071D02*
X016476Y015071D01*
X016460Y015087D02*
X016460Y015087D01*
X016575Y014972D02*
X018750Y014972D01*
X018750Y014874D02*
X016673Y014874D01*
X016710Y014775D02*
X018750Y014775D01*
X018750Y014677D02*
X016710Y014677D01*
X016710Y014578D02*
X018750Y014578D01*
X018750Y014480D02*
X016710Y014480D01*
X016710Y014381D02*
X018750Y014381D01*
X018750Y014283D02*
X016710Y014283D01*
X016710Y014184D02*
X018750Y014184D01*
X018750Y014086D02*
X016710Y014086D01*
X016710Y013987D02*
X018750Y013987D01*
X018750Y013889D02*
X016710Y013889D01*
X016710Y013790D02*
X018750Y013790D01*
X018750Y013692D02*
X016710Y013692D01*
X016710Y013593D02*
X018750Y013593D01*
X018750Y013495D02*
X016710Y013495D01*
X016710Y013396D02*
X018750Y013396D01*
X018750Y013298D02*
X016710Y013298D01*
X016710Y013199D02*
X018750Y013199D01*
X018750Y013101D02*
X016648Y013101D01*
X016549Y013002D02*
X018750Y013002D01*
X018750Y012904D02*
X016451Y012904D01*
X016352Y012805D02*
X018750Y012805D01*
X018750Y012214D02*
X016234Y012214D01*
X016431Y012116D02*
X018750Y012116D01*
X018750Y012017D02*
X016530Y012017D01*
X016460Y012087D02*
X016460Y012087D01*
X016628Y011919D02*
X018750Y011919D01*
X018750Y011820D02*
X016710Y011820D01*
X016710Y011722D02*
X018750Y011722D01*
X018750Y011623D02*
X016710Y011623D01*
X016710Y011525D02*
X018750Y011525D01*
X018750Y011426D02*
X016710Y011426D01*
X016710Y011328D02*
X018750Y011328D01*
X018750Y011229D02*
X016710Y011229D01*
X016710Y011131D02*
X018750Y011131D01*
X018750Y011032D02*
X016710Y011032D01*
X016710Y010934D02*
X018750Y010934D01*
X018750Y010835D02*
X016710Y010835D01*
X016710Y010737D02*
X018750Y010737D01*
X018750Y010638D02*
X016685Y010638D01*
X016587Y010540D02*
X018750Y010540D01*
X018750Y010441D02*
X016488Y010441D01*
X016390Y010343D02*
X017819Y010343D01*
X017721Y010244D02*
X016264Y010244D01*
X016236Y010783D02*
X016152Y010867D01*
X015848Y010867D01*
X015710Y010730D01*
X015710Y011270D01*
X015848Y011133D01*
X016152Y011133D01*
X016290Y011270D01*
X016290Y010837D01*
X016236Y010783D01*
X016185Y010835D02*
X016288Y010835D01*
X016290Y010934D02*
X015710Y010934D01*
X015710Y011032D02*
X016290Y011032D01*
X016290Y011131D02*
X015710Y011131D01*
X015710Y011229D02*
X015751Y011229D01*
X015710Y010835D02*
X015815Y010835D01*
X015717Y010737D02*
X015710Y010737D01*
X016249Y011229D02*
X016290Y011229D01*
X015764Y011783D02*
X015757Y011790D01*
X015770Y011790D01*
X015764Y011783D01*
X015460Y013007D02*
X015460Y013993D01*
X015540Y013913D01*
X015663Y013790D01*
X015770Y013790D01*
X015633Y013652D01*
X015633Y013348D01*
X015770Y013210D01*
X015663Y013210D01*
X015460Y013007D01*
X015460Y013101D02*
X015554Y013101D01*
X015460Y013199D02*
X015652Y013199D01*
X015683Y013298D02*
X015460Y013298D01*
X015460Y013396D02*
X015633Y013396D01*
X015633Y013495D02*
X015460Y013495D01*
X015460Y013593D02*
X015633Y013593D01*
X015672Y013692D02*
X015460Y013692D01*
X015460Y013790D02*
X015663Y013790D01*
X015564Y013889D02*
X015460Y013889D01*
X015460Y013987D02*
X015466Y013987D01*
X016158Y014139D02*
X016290Y014270D01*
X016290Y013730D01*
X016210Y013810D01*
X016210Y014087D01*
X016158Y014139D01*
X016204Y014184D02*
X016290Y014184D01*
X016290Y014086D02*
X016210Y014086D01*
X016210Y013987D02*
X016290Y013987D01*
X016290Y013889D02*
X016210Y013889D01*
X016230Y013790D02*
X016290Y013790D01*
X015764Y014783D02*
X015757Y014790D01*
X015770Y014790D01*
X015764Y014783D01*
X015633Y015414D02*
X015460Y015587D01*
X015460Y015743D01*
X015633Y015570D01*
X015633Y015414D01*
X015633Y015465D02*
X015582Y015465D01*
X015633Y015563D02*
X015484Y015563D01*
X015460Y015662D02*
X015541Y015662D01*
X015840Y015957D02*
X018750Y015957D01*
X018750Y015859D02*
X016161Y015859D01*
X016260Y015760D02*
X018750Y015760D01*
X018750Y015662D02*
X016358Y015662D01*
X015741Y016056D02*
X018750Y016056D01*
X018750Y016154D02*
X016174Y016154D01*
X016272Y016253D02*
X018750Y016253D01*
X015826Y016154D02*
X015710Y016154D01*
X015710Y016253D02*
X015728Y016253D01*
X015710Y016745D02*
X015725Y016745D01*
X015710Y016844D02*
X015824Y016844D01*
X018181Y010343D02*
X018750Y010343D01*
X018721Y010244D02*
X018279Y010244D01*
X018370Y010146D02*
X018630Y010146D01*
X018630Y010047D02*
X018370Y010047D01*
X018370Y009949D02*
X018630Y009949D01*
X018630Y009850D02*
X018370Y009850D01*
X018275Y009752D02*
X018725Y009752D01*
X018750Y009653D02*
X018176Y009653D01*
X017824Y009653D02*
X016387Y009653D01*
X016387Y009555D02*
X018750Y009555D01*
X018750Y009456D02*
X016387Y009456D01*
X016387Y009471D02*
X016029Y009471D01*
X016029Y009113D01*
X016257Y009113D01*
X016295Y009123D01*
X016330Y009142D01*
X016358Y009170D01*
X016377Y009205D01*
X016387Y009243D01*
X016387Y009471D01*
X016387Y009358D02*
X018750Y009358D01*
X018750Y009259D02*
X016387Y009259D01*
X016348Y009161D02*
X018750Y009161D01*
X017725Y009752D02*
X016387Y009752D01*
X016029Y009456D02*
X015971Y009456D01*
X015971Y009358D02*
X016029Y009358D01*
X016029Y009259D02*
X015971Y009259D01*
X015971Y009161D02*
X016029Y009161D01*
X019800Y000394D02*
X000200Y000394D01*
X000200Y000296D02*
X019800Y000296D01*
D19*
X020000Y000000D02*
X000000Y000000D01*
X000000Y004000D01*
X000000Y020000D01*
X020000Y020000D01*
X020000Y000000D01*
M02*
