%
M48
M72
T01C0.0315
T02C0.0320
T03C0.0360
T04C0.0400
%
T01
X8000Y3528
X8000Y4472
X9000Y6028
X9000Y6972
X8500Y8250
X7500Y8250
X6500Y8250
X6500Y11250
X7500Y11250
X8500Y11250
X9500Y11250
X10778Y13250
X11722Y13250
X13000Y13500
X13000Y12500
X13000Y11500
X13000Y10500
X13000Y9500
X16000Y9500
X16000Y10500
X16000Y11500
X16000Y12500
X16000Y13500
X16000Y14500
X16000Y15500
X16000Y16500
X13000Y16500
X13000Y15500
X13000Y14500
X9500Y8250
T02
X1000Y1500
X2000Y1500
X9500Y1500
X10500Y1500
X18000Y1500
X19000Y1500
X19000Y10000
X18000Y10000
X18000Y18500
X19000Y18500
X10500Y18500
X9500Y18500
X3000Y16500
X3000Y15500
X3000Y14500
X2000Y18500
X1000Y18500
X1000Y10000
X2000Y10000
T03
X6000Y5000
X6000Y4000
T04
X4250Y7250
X4250Y12250
X4250Y13250
X4250Y15250
X4250Y17250
X9250Y17250
X9250Y15250
X9250Y13250
X11500Y10500
X11500Y5500
M30
